<svg xmlns="http://www.w3.org/2000/svg" viewBox="0 0 500 500"><g id="freepik--background-complete--inject-36"><g><path d="M319.52,76.87l-19.37,13.27c-.29,.22-.71,.17-.93-.13-.22-.29-.17-.71,.13-.93,.02-.01,.04-.03,.06-.04h0l20.11-12.17Z" style="fill:#e0e0e0;"></path><path d="M321.68,70.85l-26.16-11.81c-.34-.15-.49-.54-.34-.87h0c.15-.35,.55-.5,.88-.35h0l25.62,13.03Z" style="fill:#e0e0e0;"></path><path d="M325.55,65.87l-5.75-23.32c-.09-.36,.13-.72,.49-.8s.72,.13,.8,.49h0l4.46,23.64Z" style="fill:#e0e0e0;"></path><path d="M330.55,67.63l14.85-22.27c.2-.28,.59-.37,.88-.19,.3,.21,.38,.62,.18,.93h0l-15.91,21.53Z" style="fill:#e0e0e0;"></path><path d="M332.27,72.01l25.03-6.34c.38-.1,.78,.12,.88,.47,.1,.36-.12,.72-.51,.82h0l-25.4,5.05Z" style="fill:#e0e0e0;"></path><path d="M331.91,78.43l16.81,13.47c.29,.23,.33,.65,.1,.93-.23,.29-.65,.33-.93,.1h0l-15.97-14.51Z" style="fill:#e0e0e0;"></path><path d="M326.03,80.47l-2.65,20.4c-.05,.36-.38,.62-.74,.58h0c-.37-.05-.62-.39-.57-.75h0l3.97-20.22Z" style="fill:#e0e0e0;"></path><path d="M323.61,76.87l-4.67,9.73c-.16,.33-.55,.46-.88,.31-.33-.16-.47-.55-.31-.88,0-.02,0-.05,0-.07l5.86-9.08Z" style="fill:#e0e0e0;"></path><path d="M321.78,73.22l-8.25-.57c-.36-.03-.64-.34-.61-.71,.02-.36,.33-.64,.69-.62h.13l8.05,1.9Z" style="fill:#e0e0e0;"></path><path d="M324.07,70.04l-6.76-6.44c-.23-.29-.17-.71,.12-.93,.22-.17,.53-.19,.77-.03,.03,.02,.05,.04,.06,.07l5.81,7.33Z" style="fill:#e0e0e0;"></path><path d="M327.1,68.77l1.68-10.41c.05-.36,.38-.62,.74-.57,.36,.05,.62,.38,.57,.74v.04s0,.06,0,.09l-2.99,10.11Z" style="fill:#e0e0e0;"></path><path d="M327.51,71.43l9.32-5.85c.33-.21,.78-.13,1,.18,.19,.3,.11,.69-.2,.89l-.08,.04-10.05,4.74Z" style="fill:#e0e0e0;"></path><path d="M330.28,75.21l9.27,1.23c.36,.05,.62,.38,.58,.74h0c-.05,.36-.39,.62-.75,.58h-.09l-9-2.55Z" style="fill:#e0e0e0;"></path><path d="M327.58,77.64l3.78,9.31c.1,.36-.1,.73-.46,.83-.3,.09-.63-.05-.78-.33v-.09l-2.54-9.73Z" style="fill:#e0e0e0;"></path><path d="M304.07,73.56l-7.54-.28c-.19,0-.33-.16-.33-.34h0c.01-.18,.16-.32,.34-.32h0l7.53,.95Z" style="fill:#e0e0e0;"></path><path d="M313.08,55.97l-4.88-5.63c-.1-.16-.05-.36,.11-.46,.13-.08,.29-.07,.4,.03h0l4.38,6.07Z" style="fill:#e0e0e0;"></path><path d="M332.1,50.01l2.01-5.78c.06-.17,.25-.26,.42-.2,.17,.06,.26,.24,.21,.41h0l-2.64,5.57Z" style="fill:#e0e0e0;"></path><path d="M345.52,59.78l6.62-4.23c.15-.1,.36-.05,.46,.1,.1,.15,.05,.36-.1,.46h0l-6.97,3.67Z" style="fill:#e0e0e0;"></path><path d="M347.72,78.14l7.62,2.33c.18,.03,.31,.2,.28,.39-.03,.18-.2,.31-.39,.28-.03,0-.06-.01-.09-.03h0l-7.42-2.97Z" style="fill:#e0e0e0;"></path><path d="M334.4,95.96l2.92,6.96c.07,.17,0,.36-.18,.43-.17,.07-.36,0-.43-.18h0l-2.31-7.22Z" style="fill:#e0e0e0;"></path><path d="M313.4,94.34l-3.96,5.84c-.09,.16-.29,.23-.45,.14-.16-.09-.23-.29-.14-.45,.01-.02,.03-.05,.05-.07h0l4.51-5.46Z" style="fill:#e0e0e0;"></path><path d="M324.88,79.06l-1.85,7.25c-.05,.18-.23,.28-.41,.24-.18-.05-.28-.23-.24-.41h0l2.49-7.08Z" style="fill:#e0e0e0;"></path><path d="M320.58,78.05l-3.78,4.36c-.13,.13-.34,.13-.47,0-.13-.13-.13-.33,0-.46h0l4.25-3.9Z" style="fill:#e0e0e0;"></path><path d="M320.22,74.73l-5.55,.74c-.18,.02-.34-.1-.37-.28-.03-.18,.1-.34,.28-.37h.05l5.59-.09Z" style="fill:#e0e0e0;"></path><path d="M321.34,69.36l-4.01-2.01c-.18-.06-.27-.25-.21-.42,.06-.18,.25-.27,.42-.21,.03,.01,.06,.03,.09,.05h0l3.71,2.6Z" style="fill:#e0e0e0;"></path><path d="M324.59,68.58l-2.17-3.73c-.09-.16-.03-.36,.12-.46,.16-.09,.36-.04,.45,.12h0v.05l1.59,4.02Z" style="fill:#e0e0e0;"></path><path d="M329.33,67.44l1.45-5.11c.05-.18,.23-.28,.41-.23,.18,.05,.28,.23,.23,.41h0v.04l-2.09,4.89Z" style="fill:#e0e0e0;"></path><path d="M330.1,68.47l3.06-2.67c.12-.15,.35-.17,.51-.06,.16,.11,.19,.33,.06,.47-.02,.03-.05,.05-.09,.07h0l-3.54,2.18Z" style="fill:#e0e0e0;"></path><path d="M330.07,73.94l3.88-.71c.19-.06,.4,.04,.46,.21,.06,.18-.04,.37-.23,.43-.03,0-.06,.02-.1,.02h-.06l-3.95,.05Z" style="fill:#e0e0e0;"></path><path d="M329.28,72.02l3.89-1.95c.17-.09,.39-.02,.48,.14,.09,.16,.03,.36-.15,.45h-.05l-4.17,1.36Z" style="fill:#e0e0e0;"></path><path d="M331.49,76.29l2.65,.57c.18,.04,.29,.22,.26,.4-.04,.18-.22,.29-.4,.26h-.08l-2.43-1.22Z" style="fill:#e0e0e0;"></path><path d="M329.69,78.64l2.65,3.78c.11,.15,.07,.36-.08,.47-.15,.11-.36,.07-.47-.08h0v-.04l-2.11-4.12Z" style="fill:#e0e0e0;"></path></g><g><path d="M52.32,248.36l-12.36,8.47c-.19,.14-.45,.11-.59-.08-.14-.19-.11-.45,.08-.59,.01,0,.03-.02,.04-.03h0l12.84-7.77Z" style="fill:#e0e0e0;"></path><path d="M53.7,244.52l-16.7-7.54c-.21-.09-.31-.34-.22-.56h0c.1-.22,.35-.32,.56-.22h0l16.35,8.31Z" style="fill:#e0e0e0;"></path><path d="M56.17,241.35l-3.67-14.88c-.06-.23,.08-.46,.31-.51,.23-.06,.46,.08,.51,.31h0l2.84,15.09Z" style="fill:#e0e0e0;"></path><path d="M59.36,242.47l9.48-14.21c.13-.18,.37-.23,.56-.12,.19,.13,.24,.4,.11,.59h0l-10.15,13.74Z" style="fill:#e0e0e0;"></path><path d="M60.46,245.26l15.97-4.05c.24-.06,.5,.07,.56,.3,.07,.23-.08,.46-.32,.52h0l-16.21,3.22Z" style="fill:#e0e0e0;"></path><path d="M60.23,249.36l10.72,8.6c.18,.15,.21,.41,.06,.6-.15,.18-.41,.21-.6,.07h0l-10.19-9.26Z" style="fill:#e0e0e0;"></path><path d="M56.48,250.66l-1.69,13.02c-.03,.23-.24,.4-.47,.37h0c-.23-.03-.4-.25-.37-.48h0l2.53-12.9Z" style="fill:#e0e0e0;"></path><path d="M54.93,248.36l-2.98,6.21c-.1,.21-.35,.3-.56,.2-.21-.1-.3-.35-.2-.56,0-.01,0-.03,0-.05l3.74-5.8Z" style="fill:#e0e0e0;"></path><path d="M53.76,246.04l-5.27-.37c-.23-.02-.41-.22-.39-.45,.01-.23,.21-.41,.44-.4h.08l5.14,1.21Z" style="fill:#e0e0e0;"></path><path d="M55.23,244.01l-4.31-4.11c-.14-.18-.11-.45,.07-.59,.14-.11,.34-.12,.49-.02,.02,.01,.03,.03,.04,.05l3.71,4.68Z" style="fill:#e0e0e0;"></path><path d="M57.16,243.19l1.07-6.64c.03-.23,.24-.39,.48-.36s.39,.24,.36,.48v.02s0,.04,0,.06l-1.91,6.45Z" style="fill:#e0e0e0;"></path><path d="M57.42,244.89l5.95-3.74c.21-.13,.5-.08,.64,.11,.12,.19,.07,.44-.13,.57l-.05,.03-6.41,3.03Z" style="fill:#e0e0e0;"></path><path d="M59.19,247.31l5.92,.78c.23,.03,.4,.24,.37,.47h0c-.03,.23-.25,.39-.48,.37h-.06l-5.75-1.63Z" style="fill:#e0e0e0;"></path><path d="M57.47,248.85l2.41,5.94c.07,.23-.07,.47-.29,.53-.19,.06-.4-.03-.5-.21v-.06l-1.62-6.21Z" style="fill:#e0e0e0;"></path><path d="M42.46,246.25l-4.81-.18c-.12,0-.21-.1-.21-.22h0c0-.12,.1-.2,.22-.2h0l4.8,.6Z" style="fill:#e0e0e0;"></path><path d="M48.22,235.02l-3.12-3.6c-.06-.1-.03-.23,.07-.3,.08-.05,.18-.04,.25,.02h0l2.79,3.87Z" style="fill:#e0e0e0;"></path><path d="M60.35,231.22l1.28-3.69c.04-.11,.16-.17,.27-.13,.11,.04,.17,.15,.13,.26h0l-1.68,3.56Z" style="fill:#e0e0e0;"></path><path d="M68.91,237.46l4.22-2.7c.1-.06,.23-.03,.29,.06,.06,.1,.03,.23-.06,.29h0l-4.45,2.34Z" style="fill:#e0e0e0;"></path><path d="M70.32,249.18l4.86,1.49c.12,.02,.2,.13,.18,.25-.02,.12-.13,.2-.25,.18-.02,0-.04,0-.06-.02h0l-4.74-1.9Z" style="fill:#e0e0e0;"></path><path d="M61.82,260.55l1.86,4.44c.05,.11,0,.23-.11,.28-.11,.05-.23,0-.28-.11h0l-1.47-4.61Z" style="fill:#e0e0e0;"></path><path d="M48.42,259.51l-2.53,3.73c-.06,.1-.19,.14-.29,.09-.1-.06-.14-.19-.09-.29,0-.02,.02-.03,.03-.04h0l2.88-3.48Z" style="fill:#e0e0e0;"></path><path d="M55.75,249.76l-1.18,4.63c-.03,.11-.15,.18-.26,.15-.11-.03-.18-.15-.15-.26h0l1.59-4.52Z" style="fill:#e0e0e0;"></path><path d="M53,249.11l-2.41,2.78c-.08,.08-.22,.08-.3,0-.08-.08-.08-.21,0-.3h0l2.71-2.49Z" style="fill:#e0e0e0;"></path><path d="M52.77,247l-3.54,.47c-.11,.01-.22-.07-.24-.18-.02-.11,.06-.22,.18-.24h.03l3.57-.06Z" style="fill:#e0e0e0;"></path><path d="M53.48,243.57l-2.56-1.28c-.11-.04-.17-.16-.14-.27,.04-.11,.16-.17,.27-.14,.02,0,.04,.02,.06,.03h0l2.37,1.66Z" style="fill:#e0e0e0;"></path><path d="M55.56,243.07l-1.38-2.38c-.06-.1-.02-.23,.08-.29,.1-.06,.23-.02,.29,.08h0v.03l1.02,2.57Z" style="fill:#e0e0e0;"></path><path d="M58.58,242.35l.93-3.26c.03-.11,.15-.18,.26-.15s.18,.15,.15,.26h0v.03l-1.33,3.12Z" style="fill:#e0e0e0;"></path><path d="M59.07,243l1.95-1.7c.08-.09,.22-.11,.32-.04,.1,.07,.12,.21,.04,.3-.02,.02-.03,.03-.05,.05h0l-2.26,1.39Z" style="fill:#e0e0e0;"></path><path d="M59.06,246.49l2.47-.45c.12-.04,.25,.02,.29,.14,.04,.11-.03,.24-.15,.27-.02,0-.04,0-.06,.01h-.04l-2.52,.03Z" style="fill:#e0e0e0;"></path><path d="M58.55,245.27l2.48-1.24c.11-.05,.25-.02,.31,.09,.06,.1,.02,.23-.09,.29h-.03l-2.66,.87Z" style="fill:#e0e0e0;"></path><path d="M59.96,248l1.69,.36c.12,.03,.19,.14,.16,.25-.03,.11-.14,.19-.25,.16h-.05l-1.55-.78Z" style="fill:#e0e0e0;"></path><path d="M58.81,249.49l1.69,2.41c.07,.1,.05,.23-.05,.3-.1,.07-.23,.05-.3-.05h0v-.03l-1.34-2.63Z" style="fill:#e0e0e0;"></path></g><g><path d="M101.27,82.18l-15.21,10.42c-.23,.17-.56,.13-.73-.1-.17-.23-.13-.56,.1-.73,.02-.01,.03-.02,.05-.03h0l15.8-9.56Z" style="fill:#f0f0f0;"></path><path d="M102.97,77.45l-20.55-9.27c-.26-.12-.38-.42-.27-.69h0c.12-.27,.43-.39,.69-.27h0l20.12,10.23Z" style="fill:#f0f0f0;"></path><path d="M106.01,73.55l-4.52-18.32c-.07-.28,.1-.56,.38-.63,.28-.07,.56,.1,.63,.38h0l3.5,18.57Z" style="fill:#f0f0f0;"></path><path d="M109.94,74.93l11.66-17.49c.16-.22,.46-.29,.69-.15,.24,.16,.3,.49,.14,.73h0l-12.5,16.91Z" style="fill:#f0f0f0;"></path><path d="M111.29,78.36l19.66-4.98c.3-.08,.61,.09,.69,.37,.08,.28-.1,.57-.4,.64h0l-19.95,3.97Z" style="fill:#f0f0f0;"></path><path d="M111,83.41l13.2,10.58c.22,.18,.26,.51,.08,.73-.18,.22-.51,.26-.73,.08h0l-12.55-11.39Z" style="fill:#f0f0f0;"></path><path d="M106.39,85.01l-2.08,16.02c-.04,.29-.3,.49-.58,.45h0c-.29-.04-.49-.3-.45-.59h0l3.12-15.88Z" style="fill:#f0f0f0;"></path><path d="M104.48,82.18l-3.67,7.64c-.13,.26-.44,.36-.69,.24-.26-.12-.37-.44-.24-.69,0-.02,0-.04,0-.06l4.61-7.13Z" style="fill:#f0f0f0;"></path><path d="M103.05,79.32l-6.48-.45c-.29-.02-.5-.27-.48-.56,.01-.28,.26-.5,.54-.49h.1l6.32,1.49Z" style="fill:#f0f0f0;"></path><path d="M104.85,76.82l-5.31-5.06c-.18-.23-.14-.55,.09-.73,.18-.14,.42-.15,.6-.03,.02,.02,.04,.03,.05,.06l4.56,5.76Z" style="fill:#f0f0f0;"></path><path d="M107.23,75.82l1.32-8.18c.04-.29,.3-.49,.58-.45,.29,.04,.49,.3,.45,.58v.03s0,.05,0,.07l-2.35,7.94Z" style="fill:#f0f0f0;"></path><path d="M107.55,77.91l7.32-4.6c.26-.16,.61-.1,.79,.14,.15,.24,.08,.54-.16,.7l-.06,.03-7.89,3.72Z" style="fill:#f0f0f0;"></path><path d="M109.72,80.88l7.28,.97c.29,.04,.49,.3,.45,.58h0c-.04,.29-.3,.49-.59,.45h-.07l-7.07-2Z" style="fill:#f0f0f0;"></path><path d="M107.6,82.79l2.97,7.32c.08,.28-.08,.57-.36,.65-.24,.07-.49-.04-.61-.26v-.07l-1.99-7.64Z" style="fill:#f0f0f0;"></path><path d="M89.14,79.59l-5.93-.22c-.15,0-.26-.12-.26-.27h0c.01-.14,.13-.25,.27-.25h0l5.91,.74Z" style="fill:#f0f0f0;"></path><path d="M96.22,65.77l-3.83-4.43c-.08-.12-.04-.29,.08-.36,.1-.06,.23-.05,.31,.02h0l3.44,4.77Z" style="fill:#f0f0f0;"></path><path d="M111.15,61.09l1.58-4.54c.05-.14,.2-.21,.33-.16,.13,.04,.21,.19,.16,.32h0l-2.07,4.38Z" style="fill:#f0f0f0;"></path><path d="M121.69,68.76l5.2-3.32c.12-.08,.28-.04,.36,.08s.04,.28-.08,.36h0l-5.47,2.88Z" style="fill:#f0f0f0;"></path><path d="M123.42,83.18l5.98,1.83c.14,.02,.24,.16,.22,.3-.02,.14-.16,.24-.3,.22-.02,0-.05-.01-.07-.02h0l-5.83-2.33Z" style="fill:#f0f0f0;"></path><path d="M112.96,97.18l2.29,5.47c.06,.13,0,.28-.14,.34-.13,.06-.28,0-.34-.14h0l-1.81-5.67Z" style="fill:#f0f0f0;"></path><path d="M96.47,95.9l-3.11,4.59c-.07,.13-.23,.18-.36,.11s-.18-.23-.11-.36c0-.02,.02-.04,.04-.05h0l3.54-4.29Z" style="fill:#f0f0f0;"></path><path d="M105.48,83.91l-1.45,5.7c-.04,.14-.18,.22-.32,.19-.14-.04-.22-.18-.19-.32h0l1.96-5.56Z" style="fill:#f0f0f0;"></path><path d="M102.11,83.11l-2.97,3.42c-.1,.1-.27,.1-.37,0-.1-.1-.1-.26,0-.36h0l3.33-3.06Z" style="fill:#f0f0f0;"></path><path d="M101.82,80.5l-4.36,.58c-.14,.02-.27-.08-.29-.22-.02-.14,.08-.27,.22-.29h.04l4.39-.07Z" style="fill:#f0f0f0;"></path><path d="M102.7,76.29l-3.15-1.58c-.14-.05-.21-.19-.17-.33,.05-.14,.19-.21,.33-.17,.03,0,.05,.02,.07,.04h0l2.91,2.04Z" style="fill:#f0f0f0;"></path><path d="M105.26,75.67l-1.7-2.93c-.07-.13-.03-.29,.1-.36,.12-.07,.28-.03,.35,.09h0v.04l1.25,3.16Z" style="fill:#f0f0f0;"></path><path d="M108.98,74.78l1.14-4.02c.04-.14,.18-.22,.32-.18,.14,.04,.22,.18,.18,.32h0v.03l-1.64,3.84Z" style="fill:#f0f0f0;"></path><path d="M109.58,75.58l2.4-2.1c.1-.12,.28-.14,.4-.05,.12,.09,.15,.26,.05,.37-.02,.02-.04,.04-.07,.06h0l-2.78,1.71Z" style="fill:#f0f0f0;"></path><path d="M109.56,79.88l3.05-.56c.15-.05,.31,.03,.36,.17,.05,.14-.03,.29-.18,.34-.02,0-.05,.01-.08,.01h-.04l-3.11,.04Z" style="fill:#f0f0f0;"></path><path d="M108.94,78.37l3.05-1.53c.14-.07,.31-.02,.38,.11,.07,.13,.02,.29-.12,.35h-.04l-3.28,1.07Z" style="fill:#f0f0f0;"></path><path d="M110.67,81.73l2.08,.44c.14,.03,.23,.17,.2,.31-.03,.14-.17,.23-.31,.2h-.06l-1.91-.96Z" style="fill:#f0f0f0;"></path><path d="M109.26,83.57l2.08,2.97c.08,.12,.06,.28-.06,.37-.12,.08-.28,.06-.37-.06h0v-.03l-1.65-3.24Z" style="fill:#f0f0f0;"></path></g><g><path d="M434.82,238.1l-20.02,13.71c-.3,.23-.73,.17-.96-.13-.23-.3-.17-.73,.13-.96,.02-.02,.04-.03,.06-.04h0l20.79-12.58Z" style="fill:#e0e0e0;"></path><path d="M437.05,231.87l-27.04-12.2c-.35-.15-.5-.56-.35-.9h0c.16-.36,.57-.51,.91-.36h0l26.47,13.47Z" style="fill:#e0e0e0;"></path><path d="M441.05,226.74l-5.94-24.11c-.09-.37,.13-.74,.5-.83,.37-.09,.74,.13,.83,.5h0l4.61,24.44Z" style="fill:#e0e0e0;"></path><path d="M446.22,228.55l15.35-23.02c.21-.29,.61-.38,.91-.19,.31,.22,.4,.64,.18,.96h0l-16.45,22.25Z" style="fill:#e0e0e0;"></path><path d="M448,233.07l25.87-6.56c.4-.1,.8,.12,.91,.49,.11,.37-.13,.75-.52,.85h0l-26.25,5.22Z" style="fill:#e0e0e0;"></path><path d="M447.62,239.72l17.37,13.92c.3,.24,.34,.67,.11,.96-.24,.3-.67,.34-.96,.11h0l-16.51-14.99Z" style="fill:#e0e0e0;"></path><path d="M441.55,241.82l-2.74,21.08c-.05,.38-.39,.64-.77,.59h0c-.38-.05-.64-.4-.59-.78h0l4.1-20.9Z" style="fill:#e0e0e0;"></path><path d="M439.05,238.1l-4.83,10.06c-.17,.34-.57,.48-.91,.32-.34-.16-.48-.57-.32-.91,0-.02,0-.05,0-.07l6.06-9.39Z" style="fill:#e0e0e0;"></path><path d="M437.15,234.33l-8.53-.59c-.38-.03-.66-.36-.63-.73,.02-.37,.34-.66,.71-.64h.13l8.32,1.97Z" style="fill:#e0e0e0;"></path><path d="M439.52,231.04l-6.98-6.66c-.23-.3-.18-.73,.12-.96,.23-.18,.55-.19,.79-.03,.03,.02,.05,.04,.06,.07l6.01,7.58Z" style="fill:#e0e0e0;"></path><path d="M442.66,229.73l1.74-10.76c.05-.38,.39-.64,.77-.59,.38,.05,.64,.39,.59,.77v.04s0,.06,0,.09l-3.09,10.45Z" style="fill:#e0e0e0;"></path><path d="M443.08,232.48l9.64-6.05c.34-.21,.8-.13,1.04,.18,.2,.31,.11,.71-.21,.92l-.08,.05-10.39,4.9Z" style="fill:#e0e0e0;"></path><path d="M445.94,236.39l9.58,1.27c.38,.05,.64,.39,.59,.77h0c-.06,.38-.4,.64-.78,.6h-.09l-9.31-2.63Z" style="fill:#e0e0e0;"></path><path d="M443.15,238.89l3.9,9.63c.11,.37-.11,.75-.47,.86-.31,.09-.65-.05-.81-.34v-.09l-2.62-10.06Z" style="fill:#e0e0e0;"></path><path d="M418.85,234.68l-7.8-.29c-.19,0-.34-.16-.34-.36h0c.01-.19,.17-.33,.36-.33h0l7.78,.98Z" style="fill:#e0e0e0;"></path><path d="M428.17,216.5l-5.05-5.82c-.1-.16-.05-.38,.11-.48,.13-.08,.3-.07,.41,.03h0l4.53,6.27Z" style="fill:#e0e0e0;"></path><path d="M447.82,210.34l2.08-5.98c.06-.18,.26-.27,.44-.21,.18,.06,.27,.25,.21,.43h0l-2.72,5.76Z" style="fill:#e0e0e0;"></path><path d="M461.69,220.44l6.84-4.37c.16-.1,.37-.05,.47,.11,.1,.16,.05,.37-.11,.47h0l-7.2,3.79Z" style="fill:#e0e0e0;"></path><path d="M463.97,239.42l7.87,2.41c.19,.03,.32,.21,.29,.4-.03,.19-.21,.32-.4,.29-.03,0-.06-.01-.09-.03h0l-7.67-3.07Z" style="fill:#e0e0e0;"></path><path d="M450.2,257.84l3.02,7.19c.07,.17,0,.37-.18,.45-.17,.07-.37,0-.45-.18h0l-2.39-7.46Z" style="fill:#e0e0e0;"></path><path d="M428.5,256.15l-4.1,6.03c-.09,.17-.3,.23-.47,.14-.17-.09-.23-.3-.14-.47,.01-.02,.03-.05,.05-.07h0l4.66-5.64Z" style="fill:#e0e0e0;"></path><path d="M440.36,240.37l-1.91,7.5c-.05,.18-.24,.29-.42,.25-.18-.05-.29-.24-.25-.42h0l2.58-7.32Z" style="fill:#e0e0e0;"></path><path d="M435.92,239.31l-3.9,4.51c-.13,.13-.35,.13-.48,0-.13-.13-.14-.34,0-.48h0l4.39-4.03Z" style="fill:#e0e0e0;"></path><path d="M435.55,235.89l-5.73,.77c-.19,.02-.36-.11-.38-.29-.03-.18,.1-.36,.29-.38h.05l5.78-.09Z" style="fill:#e0e0e0;"></path><path d="M436.7,230.34l-4.14-2.08c-.18-.06-.28-.26-.22-.44,.06-.18,.26-.28,.44-.22,.03,.01,.06,.03,.09,.05h0l3.83,2.69Z" style="fill:#e0e0e0;"></path><path d="M440.06,229.53l-2.24-3.86c-.09-.17-.03-.38,.13-.48,.16-.09,.37-.04,.46,.12h0v.05l1.65,4.16Z" style="fill:#e0e0e0;"></path><path d="M444.96,228.35l1.5-5.28c.05-.18,.24-.29,.42-.24,.18,.05,.29,.24,.24,.42h0v.05l-2.16,5.06Z" style="fill:#e0e0e0;"></path><path d="M445.76,229.41l3.16-2.76c.13-.15,.36-.18,.53-.06s.19,.34,.07,.49c-.02,.03-.05,.06-.09,.08h0l-3.66,2.25Z" style="fill:#e0e0e0;"></path><path d="M445.73,235.07l4.01-.74c.2-.06,.41,.04,.47,.22,.07,.18-.04,.38-.24,.44-.03,0-.07,.02-.1,.02h-.06l-4.09,.06Z" style="fill:#e0e0e0;"></path><path d="M444.91,233.08l4.02-2.01c.18-.09,.4-.03,.5,.14s.03,.38-.15,.46h-.05l-4.31,1.41Z" style="fill:#e0e0e0;"></path><path d="M447.19,237.5l2.74,.59c.19,.04,.3,.22,.27,.41-.04,.19-.22,.3-.41,.27h-.08l-2.51-1.26Z" style="fill:#e0e0e0;"></path><path d="M445.33,239.93l2.74,3.9c.11,.16,.07,.37-.08,.48s-.37,.07-.48-.08h0v-.05l-2.18-4.26Z" style="fill:#e0e0e0;"></path></g><g><g><g><path d="M443.92,330.2h-180.75c-3.23,0-5.86-2.63-5.86-5.86V61.06c0-3.23,2.63-5.86,5.86-5.86h180.75c3.23,0,5.86,2.63,5.86,5.86V324.34c0,3.23-2.63,5.86-5.86,5.86ZM263.17,55.45c-3.09,0-5.61,2.52-5.61,5.61V324.34c0,3.09,2.52,5.61,5.61,5.61h180.75c3.09,0,5.61-2.52,5.61-5.61V61.06c0-3.09-2.52-5.61-5.61-5.61h-180.75Z" style="fill:#e0e0e0;"></path><path d="M235.49,330.2H54.75c-3.23,0-5.86-2.63-5.86-5.86V61.06c0-3.23,2.63-5.86,5.86-5.86H235.49c3.23,0,5.86,2.63,5.86,5.86V324.34c0,3.23-2.63,5.86-5.86,5.86ZM54.75,55.45c-3.09,0-5.61,2.52-5.61,5.61V324.34c0,3.09,2.52,5.61,5.61,5.61H235.49c3.09,0,5.61-2.52,5.61-5.61V61.06c0-3.09-2.52-5.61-5.61-5.61H54.75Z" style="fill:#e0e0e0;"></path></g><rect x="0" y="391.27" width="500" height=".25" style="fill:#e0e0e0;"></rect></g><rect x="51.67" y="405.53" width="16.06" height=".25" style="fill:#e0e0e0;"></rect><rect x="170.35" y="402.82" width="53.53" height=".25" style="fill:#e0e0e0;"></rect><rect x="68.73" y="414.82" width="36.25" height=".25" style="fill:#e0e0e0;"></rect><rect x="378.35" y="402.69" width="43.19" height=".25" style="fill:#e0e0e0;"></rect><rect x="430.45" y="402.69" width="6.33" height=".25" style="fill:#e0e0e0;"></rect><rect x="316.21" y="408.92" width="53.89" height=".25" style="fill:#e0e0e0;"></rect></g><g id="freepik--freepik--background-complete--inject-33--inject-36"><polygon points="242.68 80.2 246.48 78.08 250.27 80.2 249.55 75.7 252.62 72.5 248.37 71.84 246.48 67.75 244.58 71.84 240.33 72.5 243.4 75.7 242.68 80.2" style="fill:#f0f0f0;"></polygon><path d="M424.15,291.26h-31.03v-59.38c5.45-.67,9.58-5.58,9.59-11.43v-1.23c0-6.37-4.84-11.54-10.81-11.54h-.02v-14.98l6.29-2.32h0c-9.21-20.85-15.52-43.03-18.71-65.82l-3.55-25.34-3.62,25.34c-3.19,22.79-9.49,44.97-18.7,65.82h0l6.29,2.32v14.96c-5.98,0-10.83,5.17-10.83,11.54v1.63h-55.84v-36.83h-.2c10.61-7.42,17.16-17.56,17.16-28.77,0-16.04-13.44-29.94-33.03-36.73-11.72-4.12-21.24-13.37-26.16-25.43,7.53-.27,13.43-6.98,13.18-15.01-.25-8.02-6.56-14.31-14.09-14.04h0c-.53,0-1.06,.04-1.59,.1,5.87,.81,10.02,6.53,9.26,12.78-.76,6.25-6.13,10.67-12,9.87-4.83-.66-8.64-4.71-9.26-9.86-.07,.56-.1,1.12-.1,1.69,0,7.62,5.52,13.95,12.66,14.52-4.93,12.05-14.44,21.29-26.16,25.4-19.6,6.78-33.04,20.68-33.04,36.73,0,11.17,6.56,21.35,17.17,28.77h-.21v36.8h-55.82v-1.61c0-6.37-4.84-11.54-10.81-11.54h-.02v-14.98l6.29-2.32h0c-9.21-20.85-15.52-43.03-18.71-65.82l-3.55-25.34-3.62,25.34c-3.19,22.79-9.49,44.97-18.7,65.82h0l6.29,2.32v14.96c-5.98,0-10.84,5.17-10.84,11.54h0v1.25c0,5.84,4.1,10.76,9.54,11.45v59.38h-31.01c-3.61,0-6.55,3.12-6.55,6.97v5.07c0,3.84,2.93,6.96,6.53,6.96h.01v82.83H424.15v-82.85h0c3.61,0,6.54-3.11,6.55-6.95h0v-5.08c0-3.85-2.93-6.97-6.55-6.97Z" style="fill:#f0f0f0;"></path><rect x="106.88" y="231.87" width="286.24" height="59.38" style="fill:#e6e6e6;"></rect><path d="M281.31,336.42c0-8.35-6.99-15.59-17.19-19.11-6.54-2.3-11.74-7.64-14.12-14.52h0c-2.38,6.88-7.58,12.23-14.12,14.52-10.2,3.52-17.19,10.76-17.19,19.11,.03,3.09,.95,6.1,2.64,8.61v48.04h57.34v-48.04c1.68-2.52,2.6-5.52,2.63-8.61Z" style="fill:#e0e0e0;"></path><path d="M306,333.38h0c-5.68,.01-10.28,4.92-10.28,10.97v48.74h20.61v-48.74c0-6.07-4.63-10.98-10.32-10.97h-.01Z" style="fill:#e0e0e0;"></path><path d="M338.6,333.38h0c5.69,0,10.31,4.92,10.31,10.98v48.74h-20.62v-48.75c0-6.06,4.62-10.97,10.31-10.97Z" style="fill:#e0e0e0;"></path><path d="M371.19,333.38h0c5.69,0,10.31,4.92,10.31,10.98v48.74h-20.62v-48.75c0-6.06,4.62-10.97,10.31-10.97Z" style="fill:#e0e0e0;"></path><path d="M403.76,333.38h0c-5.69,0-10.3,4.91-10.3,10.97h0v48.74h20.61v-48.74c0-6.06-4.62-10.97-10.31-10.97Z" style="fill:#e0e0e0;"></path><path d="M96.22,333.38h0c-5.68,.01-10.28,4.92-10.28,10.97v48.74h20.61v-48.74c0-6.07-4.63-10.98-10.32-10.97h-.01Z" style="fill:#e0e0e0;"></path><path d="M128.82,333.38h0c5.69,0,10.31,4.92,10.31,10.98v48.74h-20.62v-48.75c0-6.06,4.62-10.97,10.31-10.97Z" style="fill:#e0e0e0;"></path><path d="M161.41,333.38h0c5.69,0,10.31,4.92,10.31,10.98v48.74h-20.62v-48.75c0-6.06,4.62-10.97,10.31-10.97Z" style="fill:#e0e0e0;"></path><path d="M193.98,333.38h0c-5.69,0-10.3,4.91-10.3,10.97h0v48.74h20.61v-48.74c0-6.06-4.62-10.97-10.31-10.97Z" style="fill:#e0e0e0;"></path><polygon points="144.31 263.9 154.38 253.17 164.45 263.9 154.38 274.63 144.31 263.9" style="fill:#e0e0e0;"></polygon><polygon points="208.05 263.9 218.12 253.17 228.2 263.9 218.12 274.63 208.05 263.9" style="fill:#e0e0e0;"></polygon><polygon points="271.8 263.9 281.87 253.17 291.95 263.9 281.87 274.63 271.8 263.9" style="fill:#e0e0e0;"></polygon><polygon points="335.55 263.9 345.62 253.18 355.7 263.9 345.62 274.63 335.55 263.9" style="fill:#e0e0e0;"></polygon><polygon points="206.8 220.8 293.2 220.8 293.2 184 207.01 184 206.8 220.8" style="fill:#e6e6e6;"></polygon><rect x="108.17" y="192.69" width="31.93" height="14.96" style="fill:#e0e0e0;"></rect><rect x="359.9" y="192.69" width="31.93" height="14.96" style="fill:#e0e0e0;"></rect></g></g><g id="freepik--Shadow--inject-36"><path d="M458.88,448.39c0,3.39-93.52,6.13-208.88,6.13s-208.88-2.75-208.88-6.13,93.52-6.13,208.88-6.13,208.88,2.75,208.88,6.13Z" style="fill:#f5f5f5;"></path></g><g id="freepik--Fireworks--inject-36"><g id="freepik--freepik--fireworks-1--inject-2--inject-36"><g><path d="M409.84,133.24l-20.84,14.27c-.31,.24-.76,.18-1-.14s-.18-.76,.14-1c.02-.02,.04-.03,.06-.04h0l21.64-13.09Z" style="fill:#407BFF;"></path><path d="M412.16,126.76l-28.15-12.7c-.36-.16-.53-.58-.37-.94h0c.16-.37,.59-.53,.95-.37h0l27.56,14.02Z" style="fill:#407BFF;"></path><path d="M416.32,121.42l-6.19-25.1c-.09-.38,.14-.77,.52-.87s.77,.14,.87,.52h0l4.8,25.44Z" style="fill:#407BFF;"></path><path d="M421.71,123.31l15.98-23.96c.22-.31,.63-.39,.95-.2,.33,.22,.41,.67,.19,1h0l-17.12,23.16Z" style="fill:#407BFF;"></path><path d="M423.56,128.01l26.93-6.82c.41-.1,.83,.12,.95,.51,.11,.38-.13,.78-.54,.88h0l-27.33,5.44Z" style="fill:#407BFF;"></path><path d="M423.16,134.93l18.08,14.49c.31,.25,.36,.7,.11,1-.25,.31-.7,.36-1,.11h0l-17.19-15.61Z" style="fill:#407BFF;"></path><path d="M416.85,137.12l-2.85,21.95c-.05,.39-.41,.67-.8,.62h0c-.39-.05-.67-.42-.62-.81h0l4.27-21.75Z" style="fill:#407BFF;"></path><path d="M414.24,133.24l-5.02,10.47c-.17,.35-.6,.5-.95,.33-.35-.17-.5-.6-.33-.95,0-.03,0-.05,0-.08l6.31-9.77Z" style="fill:#407BFF;"></path><path d="M412.27,129.32l-8.88-.62c-.39-.03-.68-.37-.66-.76,.02-.39,.35-.69,.74-.67h.14l8.66,2.05Z" style="fill:#407BFF;"></path><path d="M414.73,125.9l-7.27-6.93c-.24-.31-.19-.76,.12-1,.24-.19,.57-.2,.83-.04,.03,.02,.05,.05,.07,.08l6.25,7.89Z" style="fill:#407BFF;"></path><path d="M418,124.53l1.81-11.2c.05-.39,.41-.67,.8-.61,.39,.05,.67,.41,.61,.8v.04s0,.06,0,.1l-3.22,10.88Z" style="fill:#407BFF;"></path><path d="M418.44,127.39l10.03-6.3c.36-.22,.84-.14,1.08,.19,.21,.32,.11,.74-.22,.96l-.08,.05-10.81,5.1Z" style="fill:#407BFF;"></path><path d="M421.41,131.46l9.97,1.32c.39,.05,.67,.41,.62,.8h0c-.06,.39-.42,.67-.81,.62h-.1l-9.69-2.74Z" style="fill:#407BFF;"></path><path d="M418.51,134.07l4.06,10.02c.11,.38-.11,.78-.49,.9-.33,.09-.68-.05-.84-.35v-.1l-2.73-10.47Z" style="fill:#407BFF;"></path><path d="M393.22,129.69l-8.12-.3c-.2,0-.36-.17-.35-.37h0c.01-.19,.18-.34,.37-.34h0l8.1,1.02Z" style="fill:#407BFF;"></path><path d="M402.91,110.76l-5.25-6.06c-.11-.17-.06-.39,.11-.5,.13-.08,.31-.07,.43,.03h0l4.71,6.53Z" style="fill:#407BFF;"></path><path d="M423.37,104.34l2.16-6.22c.07-.19,.27-.28,.46-.22,.18,.06,.28,.26,.22,.45h0l-2.84,6Z" style="fill:#407BFF;"></path><path d="M437.81,114.86l7.12-4.55c.17-.11,.38-.06,.49,.11,.11,.17,.06,.39-.11,.49h0l-7.5,3.95Z" style="fill:#407BFF;"></path><path d="M440.18,134.61l8.19,2.51c.2,.03,.33,.22,.3,.41-.03,.2-.22,.33-.41,.3-.03,0-.06-.02-.09-.03h0l-7.98-3.2Z" style="fill:#407BFF;"></path><path d="M425.85,153.79l3.14,7.49c.08,.18,0,.39-.19,.47-.18,.08-.39,0-.47-.19h0l-2.48-7.77Z" style="fill:#407BFF;"></path><path d="M403.26,152.04l-4.26,6.28c-.09,.18-.31,.24-.49,.15-.18-.09-.24-.31-.15-.49,.01-.03,.03-.05,.05-.07h0l4.85-5.87Z" style="fill:#407BFF;"></path><path d="M415.61,135.6l-1.99,7.8c-.05,.19-.25,.31-.44,.26-.19-.05-.31-.25-.26-.44h0l2.68-7.62Z" style="fill:#407BFF;"></path><path d="M410.98,134.51l-4.06,4.69c-.14,.14-.36,.14-.5,0-.14-.14-.14-.36,0-.5h0l4.57-4.19Z" style="fill:#407BFF;"></path><path d="M410.59,130.94l-5.97,.8c-.19,.02-.37-.11-.4-.3-.03-.19,.11-.37,.3-.4h.05l6.01-.1Z" style="fill:#407BFF;"></path><path d="M411.79,125.16l-4.31-2.16c-.19-.06-.29-.27-.23-.46,.06-.19,.27-.29,.46-.23,.03,.01,.07,.03,.1,.05h0l3.99,2.8Z" style="fill:#407BFF;"></path><path d="M415.29,124.33l-2.33-4.02c-.09-.17-.04-.39,.13-.49,.17-.1,.38-.04,.48,.13h0v.05l1.71,4.33Z" style="fill:#407BFF;"></path><path d="M420.4,123.1l1.56-5.5c.05-.19,.25-.3,.44-.25,.19,.05,.3,.25,.25,.44h0v.05l-2.25,5.26Z" style="fill:#407BFF;"></path><path d="M421.22,124.2l3.29-2.87c.13-.16,.38-.19,.55-.06,.17,.12,.2,.35,.07,.51-.03,.03-.06,.06-.09,.08h0l-3.81,2.35Z" style="fill:#407BFF;"></path><path d="M421.19,130.09l4.17-.77c.2-.06,.43,.04,.49,.23,.07,.19-.04,.4-.25,.46-.03,.01-.07,.02-.1,.02h-.06l-4.25,.06Z" style="fill:#407BFF;"></path><path d="M420.34,128.02l4.18-2.1c.19-.09,.42-.03,.52,.15,.1,.17,.03,.39-.16,.48h-.05l-4.49,1.46Z" style="fill:#407BFF;"></path><path d="M422.72,132.63l2.85,.61c.19,.04,.32,.23,.28,.43-.04,.19-.23,.32-.43,.28h-.09l-2.62-1.31Z" style="fill:#407BFF;"></path><path d="M420.78,135.15l2.85,4.06c.12,.16,.08,.39-.09,.5s-.39,.08-.5-.09h0v-.05l-2.26-4.43Z" style="fill:#407BFF;"></path></g><g><path d="M209.95,58.7l16.85-22.94c.24-.37,.74-.48,1.11-.24,.37,.24,.48,.74,.24,1.11-.02,.03-.04,.06-.06,.08h0l-18.14,21.99Z" style="fill:#407BFF;"></path><path d="M209.95,66.43l34.66,2.95c.44,.04,.77,.43,.74,.87-.04,.44-.43,.77-.87,.74h-.04l-34.48-4.56Z" style="fill:#407BFF;"></path><path d="M207.54,73.67l15.96,24.34c.24,.37,.14,.87-.23,1.12-.37,.24-.87,.14-1.12-.23h0l-14.61-25.23Z" style="fill:#407BFF;"></path><path d="M201.1,73.67l-8.04,31.44c-.11,.43-.55,.69-.98,.58-.43-.11-.69-.55-.58-.98h0l9.6-31.04Z" style="fill:#407BFF;"></path><path d="M195.2,70.19l-23.95,16.54c-.36,.25-.87,.16-1.12-.2h0c-.25-.38-.16-.88,.21-1.13h0l24.86-15.21Z" style="fill:#407BFF;"></path><path d="M195.2,61.88l-24.68-8.64c-.42-.15-.64-.6-.49-1.02,.13-.42,.58-.67,1-.54h.07l24.1,10.19Z" style="fill:#407BFF;"></path><path d="M201.1,57.19l-5.18-24.38c-.09-.44,.19-.88,.64-.97s.88,.19,.97,.64v.06l3.57,24.66Z" style="fill:#407BFF;"></path><path d="M205.33,60.34l1.42-13c.05-.44,.45-.76,.89-.72,.44,.05,.76,.45,.72,.89h0s0,.06,0,.1l-3.02,12.73Z" style="fill:#407BFF;"></path><path d="M208.87,63.76l9.65-2.67c.43-.12,.88,.14,.99,.57s-.14,.88-.57,.99h-.13l-9.95,1.11Z" style="fill:#407BFF;"></path><path d="M207.54,68.32l10.33,4.65c.41,.18,.59,.66,.4,1.07-.18,.41-.66,.59-1.07,.4-.03-.01-.07-.03-.1-.06l-9.56-6.06Z" style="fill:#407BFF;"></path><path d="M204.59,70.99l2.28,12.57c.08,.44-.2,.86-.64,.94h0c-.44,.08-.86-.2-.94-.64h0v-.11l-.68-12.76Z" style="fill:#407BFF;"></path><path d="M200.47,69.06l-7.53,10.14c-.26,.36-.77,.43-1.13,.17-.36-.26-.43-.77-.17-1.13,.02-.03,.04-.06,.06-.08l8.76-9.1Z" style="fill:#407BFF;"></path><path d="M198.36,64.91l-11.09,2.32c-.44,.09-.88-.2-.97-.64-.09-.44,.2-.88,.64-.97h.11l11.31-.72Z" style="fill:#407BFF;"></path><path d="M200.47,61.05l-8.04-9.13c-.21-.39-.06-.88,.33-1.09,.27-.15,.6-.12,.85,.06l.06,.09,6.8,10.07Z" style="fill:#407BFF;"></path><path d="M228.98,56.24l8.75-2.72c.2-.07,.42,.04,.49,.24v.03c.07,.21-.04,.43-.25,.5h-.01l-8.98,1.96Z" style="fill:#407BFF;"></path><path d="M225.76,79.98l7.86,4.48c.19,.11,.26,.36,.15,.55-.11,.19-.36,.26-.55,.14h0l-7.45-5.18Z" style="fill:#407BFF;"></path><path d="M206.43,94.45v7.41c0,.22-.18,.4-.4,.4s-.4-.18-.4-.4v-.05l.8-7.37Z" style="fill:#407BFF;"></path><path d="M187.16,88.68l-5.85,7.49c-.12,.18-.37,.23-.56,.11s-.23-.37-.11-.56c0-.01,.02-.03,.03-.04h0l6.49-7Z" style="fill:#407BFF;"></path><path d="M177.25,68.78l-9.65,.31c-.23,0-.41,0-.42-.24,0-.24,.16-.27,.39-.27h0l9.68,.2Z" style="fill:#407BFF;"></path><path d="M185.29,42.85l-6.14-6.78c-.15-.16-.15-.41,0-.57,.16-.15,.41-.15,.57,0h0l5.57,7.35Z" style="fill:#407BFF;"></path><path d="M209.95,36.25l2.17-8.26c.06-.22,.28-.36,.5-.3,.22,.06,.36,.28,.3,.5h0l-2.98,8.06Z" style="fill:#407BFF;"></path><path d="M202.98,58.33l-.8-9.05c-.02-.22,.14-.42,.37-.44,.22-.02,.42,.14,.44,.37v9.12Z" style="fill:#407BFF;"></path><path d="M208.3,57.77l2.56-6.51c.08-.21,.31-.31,.52-.23,.21,.08,.31,.31,.23,.52v.05l-3.31,6.17Z" style="fill:#407BFF;"></path><path d="M210.06,61.41l6.03-3.08c.19-.1,.43-.03,.53,.16h0c.1,.21,.03,.45-.17,.55h-.05l-6.35,2.36Z" style="fill:#407BFF;"></path><path d="M210.94,67.99l5.39,.68c.22,.03,.38,.23,.35,.45-.03,.22-.23,.38-.45,.35h-.06l-5.23-1.48Z" style="fill:#407BFF;"></path><path d="M207.54,70.19l3.97,3.4c.17,.14,.19,.4,.04,.57-.14,.17-.4,.19-.57,.04h0l-3.45-4.01Z" style="fill:#407BFF;"></path><path d="M202.58,73.41l.4,6.43c.01,.22-.15,.41-.38,.43h0c-.22,.01-.41-.15-.43-.38h0v-.05l.4-6.43Z" style="fill:#407BFF;"></path><path d="M198.91,73.41l-2.17,4.13c-.1,.2-.35,.28-.55,.18-.2-.1-.27-.35-.17-.54h0s0-.04,0-.06l2.89-3.71Z" style="fill:#407BFF;"></path><path d="M196.75,67.17l-3.82,2.25c-.18,.12-.43,.06-.54-.12v-.02c-.12-.19-.06-.44,.13-.55h.06l4.17-1.56Z" style="fill:#407BFF;"></path><path d="M198.36,69.06l-3.33,3.67c-.17,.15-.43,.13-.58-.04-.12-.14-.13-.35-.02-.5h.05l3.88-3.12Z" style="fill:#407BFF;"></path><path d="M196.55,64.16l-3.22,.4c-.22,.03-.42-.13-.45-.35-.03-.22,.13-.42,.35-.45,.03,0,.06,0,.1,0l3.22,.4Z" style="fill:#407BFF;"></path><path d="M197.65,60.74l-4.58-3.22c-.18-.13-.22-.38-.1-.56,.13-.18,.38-.23,.56-.1h.05l4.07,3.88Z" style="fill:#407BFF;"></path></g><g><path d="M67.23,146.74l-1.67-22.3c-.02-.35,.25-.65,.6-.67,.35-.02,.65,.25,.67,.6h0l.4,22.36Z" style="fill:#407BFF;"></path><path d="M71.19,151.36l22.19-15.96c.28-.21,.68-.16,.89,.12l.02,.02c.21,.26,.17,.65-.09,.87-.02,.01-.04,.03-.05,.04h0l-22.95,14.91Z" style="fill:#407BFF;"></path><path d="M73.45,156.91l21.96,6.36c.33,.09,.53,.44,.44,.77h0c-.1,.35-.45,.54-.78,.45h0l-21.62-7.58Z" style="fill:#407BFF;"></path><path d="M69.61,160.2l11.3,22.85c.13,.33-.03,.7-.36,.83-.29,.11-.62,0-.78-.26h0l-10.16-23.42Z" style="fill:#407BFF;"></path><path d="M64.31,161.14l-5.84,22.12c-.09,.34-.43,.54-.77,.45s-.54-.43-.45-.77h0l7.06-21.8Z" style="fill:#407BFF;"></path><path d="M60.06,156.17l-19.15,7.47c-.32,.13-.69-.03-.82-.35h0c-.12-.33,.03-.69,.35-.82h0l19.61-6.29Z" style="fill:#407BFF;"></path><path d="M61.18,150.37l-15.56-11.91c-.3-.18-.4-.57-.22-.87,.18-.3,.57-.4,.87-.22,.04,.03,.08,.06,.12,.09h0l14.79,12.91Z" style="fill:#407BFF;"></path><path d="M65.31,150.08l-5.8-8.45c-.21-.28-.16-.67,.12-.88,.01-.01,.03-.02,.04-.03,.29-.21,.69-.14,.9,.15h0s0,.06,0,.09l4.73,9.12Z" style="fill:#407BFF;"></path><path d="M69.17,150.31l4.41-6.53c.18-.3,.57-.4,.87-.22,.3,.18,.4,.57,.22,.87-.01,.02-.03,.04-.04,.06l-.06,.08-5.4,5.74Z" style="fill:#407BFF;"></path><path d="M70.71,153.72l8.54-2.5c.33-.1,.68,.09,.78,.43s-.09,.68-.43,.78h-.08l-8.81,1.29Z" style="fill:#407BFF;"></path><path d="M70.32,156.82l7.78,6.36c.28,.22,.32,.62,.1,.89v.02c-.22,.27-.62,.33-.89,.11l-.03-.02-.06-.05-6.9-7.3Z" style="fill:#407BFF;"></path><path d="M66.88,157.78l.69,9.9c0,.35-.3,.63-.65,.62-.3,0-.56-.23-.61-.53v-.08l.57-9.91Z" style="fill:#407BFF;"></path><path d="M63.49,156.37l-5.45,7.06c-.2,.29-.59,.36-.88,.16-.29-.2-.36-.59-.16-.88,.01-.02,.03-.04,.04-.05l.06-.06,6.39-6.22Z" style="fill:#407BFF;"></path><path d="M62.77,152.99l-9.48-1.32c-.35-.05-.59-.37-.54-.72,.05-.35,.37-.59,.72-.54h.08l9.22,2.58Z" style="fill:#407BFF;"></path><path d="M77.33,135.54l3.82-6.09c.09-.15,.28-.19,.42-.11h.01c.14,.09,.2,.27,.12,.42,0,.01-.01,.02-.02,.03h0l-4.36,5.75Z" style="fill:#407BFF;"></path><path d="M87.55,151.36l6.98-1.34c.17-.04,.33,.07,.37,.23h0c.03,.19-.08,.35-.25,.38h0l-7.09,.72Z" style="fill:#407BFF;"></path><path d="M83.41,169.88l3.81,4.41c.12,.13,.1,.33-.03,.45-.13,.12-.33,.1-.45-.03h0l-3.33-4.83Z" style="fill:#407BFF;"></path><path d="M68.96,176.29l.34,7.48c0,.18-.13,.32-.31,.33h0c-.18,.01-.33-.12-.34-.3h0l.31-7.5Z" style="fill:#407BFF;"></path><path d="M52.77,169.36l-5.56,5.18c-.14,.1-.34,.07-.44-.08-.08-.12-.08-.27,.02-.38h0l5.99-4.71Z" style="fill:#407BFF;"></path><path d="M44.41,149.89l-7.13-.91c-.18,0-.32-.14-.32-.32,0-.18,.14-.32,.32-.32,.03,0,.05,0,.08,0h0l7.06,1.53Z" style="fill:#407BFF;"></path><path d="M55.76,133.34l-2.93-6.04c-.07-.16,0-.35,.15-.43,.15-.07,.34-.01,.41,.14h0l2.36,6.32Z" style="fill:#407BFF;"></path><path d="M62.88,150.08l-5.13-4.98c-.12-.12-.12-.32,0-.45,.12-.12,.31-.13,.44,0h0l4.69,5.43Z" style="fill:#407BFF;"></path><path d="M65.77,147.03l-1.82-5.2c-.05-.17,.03-.34,.2-.4,.16-.06,.34,.02,.4,.18h0l1.22,5.41Z" style="fill:#407BFF;"></path><path d="M68.65,148.31l2.02-4.92c.07-.16,.25-.24,.41-.17h0c.16,.06,.24,.24,.18,.4h0l-2.61,4.7Z" style="fill:#407BFF;"></path><path d="M72.57,151.79l3.57-2.35c.14-.1,.33-.06,.43,.08h0c.1,.15,.06,.34-.08,.44h-.01l-3.91,1.83Z" style="fill:#407BFF;"></path><path d="M71.66,154.83h4.11c.18,0,.32,.14,.32,.32s-.14,.32-.32,.32h0l-4.11-.64Z" style="fill:#407BFF;"></path><path d="M70.36,159.29l3.52,3.63c.12,.12,.13,.31,0,.44h0c-.12,.13-.32,.13-.45,0h0l-3.08-4.08Z" style="fill:#407BFF;"></path><path d="M68.17,161.17l.82,3.58c.04,.17-.07,.34-.24,.38h0c-.17,.04-.33-.06-.37-.23h0s0-.04,0-.06l-.2-3.67Z" style="fill:#407BFF;"></path><path d="M63.69,158.55l-1.13,3.3c-.06,.16-.23,.25-.4,.2-.17-.06-.25-.24-.2-.41h0l1.73-3.09Z" style="fill:#407BFF;"></path><path d="M65.61,158.89l-.11,3.89c0,.17-.15,.31-.33,.31-.18,0-.31-.15-.31-.33h0s0-.04,0-.05l.74-3.81Z" style="fill:#407BFF;"></path><path d="M62.03,156.86l-1.72,1.88c-.12,.12-.32,.12-.45,0-.12-.12-.13-.31,0-.44h0l.06-.06,2.1-1.38Z" style="fill:#407BFF;"></path><path d="M60.94,154.25l-4.39,.4c-.17,.04-.34-.06-.38-.23-.04-.17,.06-.34,.23-.38,.03,0,.06,0,.09,0h0l4.45,.23Z" style="fill:#407BFF;"></path><path d="M67.23,146.74l-1.67-22.3c-.02-.35,.25-.65,.6-.67,.35-.02,.65,.25,.67,.6h0l.4,22.36Z" style="opacity:.3;"></path><path d="M71.19,151.36l22.19-15.96c.28-.21,.68-.16,.89,.12l.02,.02c.21,.26,.17,.65-.09,.87-.02,.01-.04,.03-.05,.04h0l-22.95,14.91Z" style="opacity:.3;"></path><path d="M73.45,156.91l21.96,6.36c.33,.09,.53,.44,.44,.77h0c-.1,.35-.45,.54-.78,.45h0l-21.62-7.58Z" style="opacity:.3;"></path><path d="M69.61,160.2l11.3,22.85c.13,.33-.03,.7-.36,.83-.29,.11-.62,0-.78-.26h0l-10.16-23.42Z" style="opacity:.3;"></path><path d="M64.31,161.14l-5.84,22.12c-.09,.34-.43,.54-.77,.45s-.54-.43-.45-.77h0l7.06-21.8Z" style="opacity:.3;"></path><path d="M60.06,156.17l-19.15,7.47c-.32,.13-.69-.03-.82-.35h0c-.12-.33,.03-.69,.35-.82h0l19.61-6.29Z" style="opacity:.3;"></path><path d="M61.18,150.37l-15.56-11.91c-.3-.18-.4-.57-.22-.87,.18-.3,.57-.4,.87-.22,.04,.03,.08,.06,.12,.09h0l14.79,12.91Z" style="opacity:.3;"></path><path d="M65.31,150.08l-5.8-8.45c-.21-.28-.16-.67,.12-.88,.01-.01,.03-.02,.04-.03,.29-.21,.69-.14,.9,.15h0s0,.06,0,.09l4.73,9.12Z" style="opacity:.3;"></path><path d="M69.17,150.31l4.41-6.53c.18-.3,.57-.4,.87-.22,.3,.18,.4,.57,.22,.87-.01,.02-.03,.04-.04,.06l-.06,.08-5.4,5.74Z" style="opacity:.3;"></path><path d="M70.71,153.72l8.54-2.5c.33-.1,.68,.09,.78,.43s-.09,.68-.43,.78h-.08l-8.81,1.29Z" style="opacity:.3;"></path><path d="M70.32,156.82l7.78,6.36c.28,.22,.32,.62,.1,.89v.02c-.22,.27-.62,.33-.89,.11l-.03-.02-.06-.05-6.9-7.3Z" style="opacity:.3;"></path><path d="M66.88,157.78l.69,9.9c0,.35-.3,.63-.65,.62-.3,0-.56-.23-.61-.53v-.08l.57-9.91Z" style="opacity:.3;"></path><path d="M63.49,156.37l-5.45,7.06c-.2,.29-.59,.36-.88,.16-.29-.2-.36-.59-.16-.88,.01-.02,.03-.04,.04-.05l.06-.06,6.39-6.22Z" style="opacity:.3;"></path><path d="M62.77,152.99l-9.48-1.32c-.35-.05-.59-.37-.54-.72,.05-.35,.37-.59,.72-.54h.08l9.22,2.58Z" style="opacity:.3;"></path><path d="M77.33,135.54l3.82-6.09c.09-.15,.28-.19,.42-.11h.01c.14,.09,.2,.27,.12,.42,0,.01-.01,.02-.02,.03h0l-4.36,5.75Z" style="opacity:.3;"></path><path d="M87.55,151.36l6.98-1.34c.17-.04,.33,.07,.37,.23h0c.03,.19-.08,.35-.25,.38h0l-7.09,.72Z" style="opacity:.3;"></path><path d="M83.41,169.88l3.81,4.41c.12,.13,.1,.33-.03,.45-.13,.12-.33,.1-.45-.03h0l-3.33-4.83Z" style="opacity:.3;"></path><path d="M68.96,176.29l.34,7.48c0,.18-.13,.32-.31,.33h0c-.18,.01-.33-.12-.34-.3h0l.31-7.5Z" style="opacity:.3;"></path><path d="M52.77,169.36l-5.56,5.18c-.14,.1-.34,.07-.44-.08-.08-.12-.08-.27,.02-.38h0l5.99-4.71Z" style="opacity:.3;"></path><path d="M44.41,149.89l-7.13-.91c-.18,0-.32-.14-.32-.32,0-.18,.14-.32,.32-.32,.03,0,.05,0,.08,0h0l7.06,1.53Z" style="opacity:.3;"></path><path d="M55.76,133.34l-2.93-6.04c-.07-.16,0-.35,.15-.43,.15-.07,.34-.01,.41,.14h0l2.36,6.32Z" style="opacity:.3;"></path><path d="M62.88,150.08l-5.13-4.98c-.12-.12-.12-.32,0-.45,.12-.12,.31-.13,.44,0h0l4.69,5.43Z" style="opacity:.3;"></path><path d="M65.77,147.03l-1.82-5.2c-.05-.17,.03-.34,.2-.4,.16-.06,.34,.02,.4,.18h0l1.22,5.41Z" style="opacity:.3;"></path><path d="M68.65,148.31l2.02-4.92c.07-.16,.25-.24,.41-.17h0c.16,.06,.24,.24,.18,.4h0l-2.61,4.7Z" style="opacity:.3;"></path><path d="M72.57,151.79l3.57-2.35c.14-.1,.33-.06,.43,.08h0c.1,.15,.06,.34-.08,.44h-.01l-3.91,1.83Z" style="opacity:.3;"></path><path d="M71.66,154.83h4.11c.18,0,.32,.14,.32,.32s-.14,.32-.32,.32h0l-4.11-.64Z" style="opacity:.3;"></path><path d="M70.36,159.29l3.52,3.63c.12,.12,.13,.31,0,.44h0c-.12,.13-.32,.13-.45,0h0l-3.08-4.08Z" style="opacity:.3;"></path><path d="M68.17,161.17l.82,3.58c.04,.17-.07,.34-.24,.38h0c-.17,.04-.33-.06-.37-.23h0s0-.04,0-.06l-.2-3.67Z" style="opacity:.3;"></path><path d="M63.69,158.55l-1.13,3.3c-.06,.16-.23,.25-.4,.2-.17-.06-.25-.24-.2-.41h0l1.73-3.09Z" style="opacity:.3;"></path><path d="M65.61,158.89l-.11,3.89c0,.17-.15,.31-.33,.31-.18,0-.31-.15-.31-.33h0s0-.04,0-.05l.74-3.81Z" style="opacity:.3;"></path><path d="M62.03,156.86l-1.72,1.88c-.12,.12-.32,.12-.45,0-.12-.12-.13-.31,0-.44h0l.06-.06,2.1-1.38Z" style="opacity:.3;"></path><path d="M60.94,154.25l-4.39,.4c-.17,.04-.34-.06-.38-.23-.04-.17,.06-.34,.23-.38,.03,0,.06,0,.09,0h0l4.45,.23Z" style="opacity:.3;"></path></g></g></g><g id="freepik--Plants--inject-36"><g id="freepik--freepik--Plant--inject-111--inject-36"><polygon points="54.95 428.42 59.08 451.12 83.56 451.12 87.94 428.42 54.95 428.42" style="fill:#263238;"></polygon><path d="M74.17,426.12c.68-8.63,5.42-17.36,13.04-23.29,1.9-1.48,5.9-4.4,2.66-5.95-3.7-1.77-10.8,6.49-11.8,8.01,2.1-6.58,8.47-11.34,15.38-14.07,3.42-1.35,6.67-2.63,3.03-4.63-3.64-2-11.51,2.86-13.34,4.94,4.31-4.81,9.77-9.63,15.36-12.51,6.17-3.18,3.38-8.48-2.98-4.38-3.94,2.54-10.42,8.9-10.42,8.9,0,0,10.18-16.34,7.11-17.81-3.98-1.91-10.95,20.35-12.88,24.74,.52-3.64,1-12.44-2.39-12.82-3.1-.34-2.34,21.57-3.06,25.44-.45,1.69-.66,2.54-1.02,4.24-.33-2.92-2.39-10.61-5.46-9.72-2.61,.75-1,6.51-.32,9.25,1.64,6.62,3.3,13.02,3.31,19.82l3.77-.16Z" style="fill:#407BFF;"></path><path d="M76.71,427.3c-2.48-4.4-3.75-9.15-5.11-14.03-.56-2.02-1.63-6.34-3.59-5.87-2.31,.55-.83,6.28,.03,8.29-.85-.97-1.3-1.45-2.21-2.37-1.88-2.24-9.41-16.69-11.29-15.34-2.05,1.49,1.48,7.01,3.15,9.17-2.85-2.13-15.52-13.98-17.39-11.29-1.45,2.08,11.12,8.92,11.12,8.92,0,0-6.52-1.74-10-1.94-5.62-.32-5.48,4.13-.32,3.93,4.67-.18,9.96,.94,14.52,2.47-1.94-.68-8.82-.94-10.44,1.69-1.62,2.63,.95,2.26,3.66,1.88,5.47-.77,11.33-.02,15.1,3.47-1.2-.62-8.82-3.36-10.57-.86-1.53,2.19,2.13,2.62,3.9,2.87,7.1,1.04,13.36,4.96,16.97,10.29l2.49-1.28Z" style="fill:#407BFF;"></path><g><path d="M68.57,429.3c-.8-12.82-6.42-25.79-15.47-34.58-2.25-2.19-6.99-6.54-3.18-8.83,4.39-2.62,12.82,9.63,13.99,11.89-2.48-9.76-10.05-16.83-18.24-20.88-4.05-2.01-7.91-3.89-3.6-6.87,4.31-2.98,13.66,4.24,15.81,7.33-5.12-7.17-11.58-14.33-18.21-18.58-7.32-4.71-3.98-12.59,3.53-6.5,4.72,3.77,12.4,13.19,12.4,13.19,0,0-12.07-24.25-8.42-26.48,4.68-2.87,12.98,30.25,15.27,36.73-.61-5.4-1.18-18.47,2.88-19.04,3.67-.51,2.77,32.02,3.62,37.77,.54,2.51,.8,3.77,1.2,6.3,.41-4.33,2.82-15.76,6.49-14.43,3.09,1.11,1.18,9.66,.37,13.73-1.95,9.82-3.92,19.34-3.92,29.42l-4.51-.15Z" style="fill:#407BFF;"></path><path d="M68.57,429.3c-.8-12.82-6.42-25.79-15.47-34.58-2.25-2.19-6.99-6.54-3.18-8.83,4.39-2.62,12.82,9.63,13.99,11.89-2.48-9.76-10.05-16.83-18.24-20.88-4.05-2.01-7.91-3.89-3.6-6.87,4.31-2.98,13.66,4.24,15.81,7.33-5.12-7.17-11.58-14.33-18.21-18.58-7.32-4.71-3.98-12.59,3.53-6.5,4.72,3.77,12.4,13.19,12.4,13.19,0,0-12.07-24.25-8.42-26.48,4.68-2.87,12.98,30.25,15.27,36.73-.61-5.4-1.18-18.47,2.88-19.04,3.67-.51,2.77,32.02,3.62,37.77,.54,2.51,.8,3.77,1.2,6.3,.41-4.33,2.82-15.76,6.49-14.43,3.09,1.11,1.18,9.66,.37,13.73-1.95,9.82-3.92,19.34-3.92,29.42l-4.51-.15Z" style="fill:#407BFF;"></path></g><rect x="51.99" y="421.88" width="39.35" height="7.57" style="fill:#263238;"></rect></g><g id="freepik--freepik--Plant--inject-111-2--inject-36"><polygon points="448.82 424.73 444.68 447.42 420.21 447.42 415.82 424.73 448.82 424.73" style="fill:#263238;"></polygon><path d="M429.6,422.43c-.68-8.63-5.42-17.36-13.04-23.29-1.9-1.48-5.9-4.4-2.66-5.95,3.7-1.77,10.8,6.49,11.8,8.01-2.1-6.58-8.47-11.34-15.38-14.07-3.42-1.35-6.67-2.63-3.03-4.63,3.64-2,11.51,2.86,13.34,4.94-4.31-4.81-9.77-9.63-15.36-12.51-6.17-3.18-3.38-8.48,2.98-4.38,3.94,2.54,10.42,8.9,10.42,8.9,0,0-10.18-16.34-7.11-17.81,3.98-1.91,10.95,20.35,12.88,24.74-.52-3.64-1-12.44,2.39-12.82,3.1-.34,2.34,21.57,3.06,25.44,.45,1.69,.66,2.54,1.02,4.24,.33-2.92,2.39-10.61,5.46-9.72,2.61,.75,1,6.51,.32,9.25-1.64,6.62-3.3,13.02-3.31,19.82l-3.77-.16Z" style="fill:#407BFF;"></path><path d="M427.05,423.6c2.48-4.4,3.75-9.15,5.11-14.03,.56-2.02,1.63-6.34,3.59-5.87,2.31,.55,.83,6.28-.03,8.29,.85-.97,1.3-1.45,2.21-2.37,1.88-2.24,9.41-16.69,11.29-15.34,2.05,1.49-1.48,7.01-3.15,9.17,2.85-2.13,15.52-13.98,17.39-11.29,1.45,2.08-11.12,8.92-11.12,8.92,0,0,6.52-1.74,10-1.94,5.62-.32,5.48,4.13,.32,3.93-4.67-.18-9.96,.94-14.52,2.47,1.94-.68,8.82-.94,10.44,1.69,1.62,2.63-.95,2.26-3.66,1.88-5.47-.77-11.33-.02-15.1,3.47,1.2-.62,8.82-3.36,10.57-.86,1.53,2.19-2.13,2.62-3.9,2.87-7.1,1.04-13.36,4.96-16.97,10.29l-2.49-1.28Z" style="fill:#407BFF;"></path><g><path d="M435.2,425.6c.8-12.82,6.42-25.79,15.47-34.58,2.25-2.19,6.99-6.54,3.18-8.83-4.39-2.62-12.82,9.63-13.99,11.89,2.48-9.76,10.05-16.83,18.24-20.88,4.05-2.01,7.91-3.89,3.6-6.87-4.31-2.98-13.66,4.24-15.81,7.33,5.12-7.17,11.58-14.33,18.21-18.58,7.32-4.71,3.98-12.59-3.53-6.5-4.72,3.77-12.4,13.19-12.4,13.19,0,0,12.07-24.25,8.42-26.48-4.68-2.87-12.98,30.25-15.27,36.72,.61-5.4,1.18-18.47-2.88-19.04-3.67-.51-2.77,32.02-3.62,37.77-.54,2.51-.8,3.77-1.2,6.3-.41-4.33-2.82-15.76-6.49-14.43-3.09,1.11-1.18,9.67-.37,13.73,1.95,9.82,3.92,19.34,3.92,29.42l4.51-.15Z" style="fill:#407BFF;"></path><path d="M435.2,425.6c.8-12.82,6.42-25.79,15.47-34.58,2.25-2.19,6.99-6.54,3.18-8.83-4.39-2.62-12.82,9.63-13.99,11.89,2.48-9.76,10.05-16.83,18.24-20.88,4.05-2.01,7.91-3.89,3.6-6.87-4.31-2.98-13.66,4.24-15.81,7.33,5.12-7.17,11.58-14.33,18.21-18.58,7.32-4.71,3.98-12.59-3.53-6.5-4.72,3.77-12.4,13.19-12.4,13.19,0,0,12.07-24.25,8.42-26.48-4.68-2.87-12.98,30.25-15.27,36.72,.61-5.4,1.18-18.47-2.88-19.04-3.67-.51-2.77,32.02-3.62,37.77-.54,2.51-.8,3.77-1.2,6.3-.41-4.33-2.82-15.76-6.49-14.43-3.09,1.11-1.18,9.67-.37,13.73,1.95,9.82,3.92,19.34,3.92,29.42l4.51-.15Z" style="fill:#407BFF;"></path><path d="M435.2,425.6c.8-12.82,6.42-25.79,15.47-34.58,2.25-2.19,6.99-6.54,3.18-8.83-4.39-2.62-12.82,9.63-13.99,11.89,2.48-9.76,10.05-16.83,18.24-20.88,4.05-2.01,7.91-3.89,3.6-6.87-4.31-2.98-13.66,4.24-15.81,7.33,5.12-7.17,11.58-14.33,18.21-18.58,7.32-4.71,3.98-12.59-3.53-6.5-4.72,3.77-12.4,13.19-12.4,13.19,0,0,12.07-24.25,8.42-26.48-4.68-2.87-12.98,30.25-15.27,36.72,.61-5.4,1.18-18.47-2.88-19.04-3.67-.51-2.77,32.02-3.62,37.77-.54,2.51-.8,3.77-1.2,6.3-.41-4.33-2.82-15.76-6.49-14.43-3.09,1.11-1.18,9.67-.37,13.73,1.95,9.82,3.92,19.34,3.92,29.42l4.51-.15Z" style="fill:#fff; isolation:isolate; opacity:.2;"></path></g><polygon points="416.98 429.32 416.07 425.71 448.63 425.71 447.81 429.03 416.98 429.32" style="isolation:isolate; opacity:.2;"></polygon><rect x="412.42" y="418.18" width="39.35" height="7.57" transform="translate(864.19 843.93) rotate(180)" style="fill:#263238;"></rect></g></g><g id="freepik--Character_2--inject-36"><g><g><polygon points="370.71 439.27 361.53 440.21 354.74 415.87 368.71 414.28 370.71 439.27" style="fill:#b97964;"></polygon><g><path d="M360.2,435.96h3.28c.74,0,1.43,.39,1.87,1.02,1.89,2.7,3.31,1.68,5.37-.86,1.31-.16,1.66,1.41,1.77,1.83l2.45,9.33c.21,.78-.22,1.59-.96,1.81-.13,.04-.27,.06-.41,.06h-25.98c-4.13,0-4.99-4.36-3.29-4.76,7.65-1.77,13.07-4.13,15.44-6.46,.44-.41-.01-.71,.46-1.98Z" style="fill:#263238;"></path><path d="M355.31,439.14c1.03-.03,2.06-.16,3.07-.41,.09-.04,.14-.14,.11-.24-.02-.05-.06-.1-.11-.11-.46-.24-4.56-2.24-5.59-1.48-.19,.13-.3,.37-.27,.6,0,.44,.21,.86,.56,1.12,.67,.42,1.45,.6,2.23,.53Zm2.43-.67c-1.21,.24-3.46,.55-4.39-.18-.24-.2-.39-.5-.41-.82-.02-.1,.02-.2,.11-.26,.57-.41,2.99,.47,4.69,1.25Z" style="fill:#407BFF;"></path><path d="M358.34,438.74s.09,.01,.13,0c.05-.05,.08-.13,.05-.2,0-.18-.96-4.4-3.21-4.13-.56,.08-.72,.36-.74,.59-.14,1.12,2.44,3.24,3.67,3.78l.1-.03Zm-2.8-4c1.42,0,2.25,2.46,2.53,3.45-1.34-.74-3.21-2.5-3.09-3.18,0-.06,0-.21,.42-.26h.15Z" style="fill:#407BFF;"></path><path d="M360.71,440.74c-.08,0-.17-.04-.21-.12-.57-.95-1.55-1.61-2.61-1.76-.14-.02-.23-.15-.21-.28s.15-.24,.28-.21c1.21,.17,2.32,.92,2.96,2,.07,.12,.03,.27-.08,.34-.04,.02-.08,.04-.13,.04Z" style="fill:#407BFF;"></path><path d="M358.67,442.34c-.08,0-.17-.04-.21-.12-.57-.95-1.55-1.61-2.61-1.76-.14-.02-.23-.15-.21-.28s.15-.24,.28-.21c1.21,.17,2.31,.92,2.96,2,.07,.12,.03,.27-.08,.34-.04,.02-.08,.04-.13,.04Z" style="fill:#407BFF;"></path><path d="M356.13,443.69c-.08,0-.17-.04-.21-.12-.57-.95-1.55-1.61-2.61-1.76-.14-.02-.23-.15-.21-.28,.02-.14,.15-.24,.28-.21,1.21,.17,2.32,.92,2.96,2,.07,.12,.03,.27-.08,.34-.04,.02-.08,.04-.13,.04Z" style="fill:#407BFF;"></path></g><polygon points="358.33 428.73 359.16 431.72 369.97 429.98 369.77 427.53 358.33 428.73" style="opacity:.3;"></polygon></g><g><polygon points="330.64 439.27 321.46 440.21 314.67 415.87 328.64 414.28 330.64 439.27" style="fill:#b97964;"></polygon><g><path d="M320.13,435.96h3.28c.74,0,1.43,.39,1.87,1.02,1.89,2.7,3.31,1.68,5.37-.86,1.31-.16,1.66,1.41,1.77,1.83l2.45,9.33c.21,.78-.22,1.59-.96,1.81-.13,.04-.27,.06-.41,.06h-25.98c-4.13,0-4.99-4.36-3.29-4.76,7.65-1.77,13.07-4.13,15.44-6.46,.44-.41-.01-.71,.46-1.98Z" style="fill:#263238;"></path><path d="M315.24,439.14c1.03-.03,2.06-.16,3.07-.41,.09-.04,.14-.14,.11-.24-.02-.05-.06-.1-.11-.11-.46-.24-4.56-2.24-5.59-1.48-.19,.13-.3,.37-.27,.6,0,.44,.21,.86,.56,1.12,.67,.42,1.45,.6,2.23,.53Zm2.43-.67c-1.21,.24-3.46,.55-4.39-.18-.24-.2-.39-.5-.41-.82-.02-.1,.02-.2,.11-.26,.57-.41,2.99,.47,4.69,1.25Z" style="fill:#407BFF;"></path><path d="M318.27,438.74s.09,.01,.13,0c.05-.05,.08-.13,.05-.2,0-.18-.96-4.4-3.21-4.13-.56,.08-.72,.36-.74,.59-.14,1.12,2.44,3.24,3.67,3.78l.1-.03Zm-2.8-4c1.42,0,2.25,2.46,2.53,3.45-1.34-.74-3.21-2.5-3.09-3.18,0-.06,0-.21,.42-.26h.15Z" style="fill:#407BFF;"></path><path d="M320.63,440.74c-.08,0-.17-.04-.21-.12-.57-.95-1.55-1.61-2.61-1.76-.14-.02-.23-.15-.21-.28s.14-.24,.28-.21c1.21,.17,2.32,.92,2.96,2,.07,.12,.03,.27-.08,.34-.04,.02-.08,.04-.13,.04Z" style="fill:#407BFF;"></path><path d="M318.6,442.35c-.08,0-.17-.04-.21-.12-.57-.95-1.55-1.61-2.61-1.76-.14-.02-.23-.15-.21-.28,.02-.14,.15-.24,.28-.21,1.21,.17,2.32,.92,2.96,2,.07,.12,.03,.27-.08,.34-.04,.02-.08,.04-.13,.04Z" style="fill:#407BFF;"></path><path d="M316.06,443.7c-.08,0-.17-.04-.21-.12-.57-.95-1.55-1.61-2.61-1.76-.14-.02-.23-.15-.21-.28,.02-.14,.15-.24,.28-.21,1.21,.17,2.32,.92,2.96,2,.07,.12,.03,.27-.08,.34-.04,.02-.08,.04-.13,.04Z" style="fill:#407BFF;"></path></g><polygon points="318.26 428.73 319.09 431.72 329.9 429.98 329.7 427.54 318.26 428.73" style="opacity:.3;"></polygon></g><g><g><path d="M311.01,255.88s-5.13,35.6-8.76,66.25c-1.11,9.34-1.32,21.83,.64,31.02l12.19,75.91,18.53-.76c-2.9-32.92-4.53-74.28-5.69-91.55,4.06-20.24,10.23-45.18,18.74-69.55l-35.65-11.32Z" style="fill:#407BFF;"></path><path d="M366.42,343.36c-.25-1.93-.56-5.85-.92-11h.08c0-6.78,1.7-38.04,1.45-58.1-.42-12.8-2.75-21.65-5.48-26.12-.14-.23-.27-.44-.39-.63-.46-.72-.74-1.12-.74-1.12-.61,.1-1.21,.19-1.8,.27-.22,.03-.45,.06-.67,.09-22.41,2.84-41.21-4.94-41.21-4.94-2.49,5.05-5,16.06-7.52,27.5,2.06,2.85,11.84,7.18,23.21,10.49l1.9,15.92c.87,9.84,2.24,19.54,3.37,28.27l1.14,9.55c.07,.63,.13,1.25,.19,1.85,.52,5.48,16.5,93.68,16.5,93.68l16.19-.33s-1.97-59.19-5.3-85.37Z" style="fill:#407BFF;"></path></g><path d="M335.66,299.34c.06,.32-7.16-27.15-7.16-27.15,0,0-6.08,24.52,3.17,39.86l3.99-12.71Z" style="isolation:isolate; opacity:.2;"></path></g><path d="M346.19,377.23s4.92,.38,9.43-1.02c4.51-1.4,6.07-3.29,8.86-3.45s4.53,.48,4.53,.48l-.39-7.55-23.59,4.37,1.16,7.17Z" style="opacity:.3;"></path><path d="M307.12,379.53s7.04,1.62,10.69,.29,5.29-3.36,8.77-3.61l3.48-.26-.43-7.99s-23.75,1.04-24.08,1.54l1.56,10.03Z" style="opacity:.3;"></path><g><g><path d="M309.81,181.29s-4.47,3.22-6.1,9.11c-1.64,5.89-4.77,28.64-4.77,28.64l-14.7-9.38-4.77,8.46s11.68,14.21,17.94,16.18c6.26,1.96,12.04,0,13.08-3.64,1.04-3.65,3.35-26.64,3.35-26.64l-4.02-22.73Z" style="fill:#263238;"></path><path d="M284.27,211.24s-.17-1.53-.75-5.13c-.13-.77-.48-2.25-1.07-3.63-.59-1.38-.21-3.24-1.23-3.3-.98-.05-2.06,2.05-1.66,3.89,.39,1.84,.1,2.54,.1,2.54,0,0-7.6-4.2-8.98-3.41-1.38,.79,0,2.7,0,2.7,0,0-1.29,.26-.61,1.84,0,0-1.29,.92-.5,2.17,0,0,.71,1.28,2.16,2.53,1.45,1.25,3.24,3.27,5.48,3.86,2.23,.59,3.35,1.11,3.35,1.11l3.73-5.16Z" style="fill:#b97964;"></path><path d="M298.94,219.04s2.65,.7,3.95,3.25c0,0,.46-2.83-3.72-4.88l-.23,1.64Z" style="opacity:.3;"></path></g><g><g><path d="M279.93,167.83c.45,1.5-.11,3.16-1.08,4.39s-2.32,2.11-3.64,2.95c-1.33,.84-2.68,1.68-3.71,2.86-1.42,1.63-2.12,3.88-1.87,6.03s1.44,4.18,3.2,5.44h6.92c2.9-2.8,5.42-5.48,5.83-9.49,.41-4.01-2.37-9.85-5.65-12.18Z" style="fill:#407BFF;"></path><g style="opacity:.3;"><path d="M275.18,188.96c-.71-.74-2.55-3.06-2.52-5.25,.02-1.31,.27-2.68,1.14-3.67,.71-.81,1.79-1.49,2.93-2.22l.12-.07c1.27-.81,3.01-1.91,4.35-3.56,.95,1.88,1.53,3.99,1.37,5.51-.27,2.61-2.72,7.04-4.95,9.26h-2.43Z" style="fill:#fff;"></path></g></g><g><rect x="268.77" y="189.12" width="14.02" height="11.75" style="fill:#263238;"></rect><rect x="266.42" y="192.12" width="19.2" height="4.86" style="fill:#263238;"></rect><polygon points="271.68 199.42 273.55 221.4 277.84 221.4 280.37 199.42 271.68 199.42" style="fill:#263238;"></polygon></g><path d="M266.54,192.17c6.43-.34,12.86-.34,19.29,0-6.43,.34-12.86,.34-19.29,0h0Z" style="fill:#407BFF;"></path><rect x="268.77" y="196.98" width="14.02" height="1.46" style="opacity:.3;"></rect></g><path d="M271.34,202.15c1.02,.15,2.37,1.54,3.04,2.42,.23,.3,.44,.62,.53,.98,.09,.36,.02,.78-.24,1.05-.34,.34-.65,.35-1.07,.12-.42-.23-.97-.67-1.24-1.07,.83,.64,1.51,1.49,1.95,2.44,.15,.32,.28,.67,.28,1.03,0,.36-.15,.73-.46,.92-.31,.19-.72,.16-1.04,0-.33-.15-.59-.42-.84-.69,.5,.47,1.01,.96,1.27,1.59,.08,.19,.13,.4,.15,.61,.05,.68-.74,1.09-1.27,.66-.67-.55-1.6-1.4-2.13-2.27-.89-1.47,.19-3.24,.19-3.24l.89-4.57Z" style="fill:#b97964;"></path></g><g><g><path d="M386.05,366.48s-8.39-41.85-15.71-87.87l-11.97-45.55c-1.03-24.05,3.5-51.19,2.15-50.22-4-4.73-19.97-6.22-19.97-6.22-.94,.06-1.9,.19-2.85,.23-4.94,.36-9.86,.99-14.73,1.88-1.5,.27-8.8,3.85-10.22,4.24-1.42,.39-6.15,20.66-4.53,27.87,1.6,5.22,3.72,16.99,4.88,21.3l-7.52,47.49c-2.43,17.37-4.75,45.39-4.64,55.8,.08,8.18,.41,31.55,1.65,38.71,0,0,3.36,2.98,10.96,1.9,7.6-1.09,7.18-3.35,13.01-4.29,5.25-.84,8.46,2.91,16.76,2.99,9.98,.09,15.87-4.67,20.93-4.93,7.04-.35,6.61,2.19,12.6,2.22,5.99,.04,9.21-5.58,9.21-5.58Z" style="fill:#263238;"></path><path d="M358.94,237.29s-.72,26.93-.5,31.15c.22,4.21,3.83,19.57,5.64,20.17,1.81,.6,5.37-14.02,5.37-14.02,0,0-7.36-32.01-10.51-37.3Z" style="opacity:.3;"></path><path d="M324.05,213.92s4.68,9.06,13.72,8.36c0,0-7.06-1.69-13.72-8.36Z" style="opacity:.3;"></path></g><path d="M357.34,182.24s7.47,.71,9.81,9.17c2.34,8.46,9.93,35.36,8.62,40.03s-6.25,32.79-6.25,32.79l-9.37-2.69,3.32-32.78-7.7-20.62,1.57-24.91" style="fill:#263238;"></path><g><path d="M363.57,263.28l5.34-.99c1.32,4.71,2.04,9.57,2.13,14.46,.03,3.18-4.82,7.12-4.82,7.12,0,0-1.52,3.88-2.61,2.79-1.08-1.09,1.27-6.46,1.29-7.67,.06-3.76,.14-7.55-.2-8.03-.34-.48-.05,4.7-1.56,5.93s-.71-5.31-1.43-7.47c-.72-2.15,.62-5.82,1.86-6.15Z" style="fill:#b97964;"></path><path d="M366.67,283.36c1.23-2.24,1.81-4.78,1.69-7.33,.03-.2-.34-.23-.32-.05,.13,2.5-.44,4.98-1.64,7.18-.1,.18,.17,.35,.27,.17v.02Z" style="isolation:isolate; opacity:.2;"></path><path d="M369.12,277.33c0,1.29-.28,2.57-.83,3.74-.1,.18,.22,.29,.3,.1,.57-1.19,.86-2.5,.86-3.82,.03-.2-.33-.22-.32-.05v.03Z" style="isolation:isolate; opacity:.2;"></path></g><path d="M358.44,215.27s1.82-14.96,1.69-14.64c-.12,.32,.72,21.08,.72,21.08l-2.41-6.44Z" style="opacity:.3;"></path><path d="M311.46,224.93s-2.52-9.84-3.02-15.79,.59-11.65,.59-11.65c0,0-3.19,9.52-2.57,13.69,.62,4.16,4.59,16.6,4.59,16.6l.41-2.84Z" style="opacity:.3;"></path></g><g><g><g><g><path d="M346.15,176.51s-4.17,2.05-9.32,6.49c-1.07,.92-2.25,1.72-3.5,2.39-3.37,1.79-6.44,2.82-7.28,1.19-.19-.36-.33-.74-.43-1.15-.71-2.72-.42-6.55,1.78-8.3,2.48-1.97,3.68-3.66,3.23-6.34-.23-1.52-.78-3.08-1.42-4.6l2.86-1.72,10.21-10.3c-1.17,6.32-1.51,18.61,3.87,22.35Z" style="fill:#b97964;"></path><path d="M350.93,150.4c-.74,10.44,3.69,19.6,3.96,21.49,.07,1.46-.29,2.91-1.06,4.16,2.6-.8,5.41-.61,7.87,.55,3.47,2-2.03,6.95-2.03,6.95,0,0-15.25,28.77-32.33,26.17-17.09-2.6-22.28-22.72-22.28-22.72,0,0-1.24-.5,.66-5.44,1.31-3.23,3.29-6.13,3.29-6.13-.96-6.55,3.97-30.15,3.97-30.15-.33-15.23,8.66-16.19,16.27-19.89,0,0,22.41,14.56,21.67,25.01Z" style="fill:#407BFF;"></path><path d="M344.26,142.55c-.96,10.49-1.15,14.94-6.56,20.44-8.14,8.27-20.67,5.49-22.82-4.91-1.94-9.36-.04-24.94,10.25-29.35,10.15-4.34,20.09,3.33,19.13,13.82Z" style="fill:#b97964;"></path><path d="M330.67,145.96c-.05,1.11-.65,2.02-1.34,2.04-.69,.01-1.21-.87-1.16-1.98,.05-1.11,.65-2.02,1.34-2.04,.69-.01,1.21,.87,1.16,1.98Z" style="fill:#263238;"></path><path d="M320.33,145.93c-.05,1.08-.65,1.96-1.34,1.97-.69,.01-1.2-.85-1.15-1.92,.05-1.08,.65-1.96,1.34-1.97,.69-.01,1.2,.85,1.15,1.92Z" style="fill:#263238;"></path><path d="M332.86,142.1c-.13,.02-.27-.02-.37-.12-1.62-1.5-3.44-.97-3.46-.96-.27,.08-.54-.07-.6-.35-.06-.27,.11-.56,.38-.65,.1-.03,2.38-.69,4.38,1.17,.2,.19,.2,.51,0,.73-.09,.11-.22,.17-.34,.18Z" style="fill:#263238;"></path><path d="M316.85,140.67c-.11-.04-.19-.11-.24-.23-.1-.24,.02-.54,.26-.67,2.4-1.35,4.17-.32,4.25-.28,.21,.13,.26,.42,.11,.67-.15,.24-.44,.34-.65,.21-.07-.04-1.46-.81-3.37,.26-.12,.07-.26,.08-.37,.04Z" style="fill:#263238;"></path><path d="M323.14,145.42s-1.64,3.93-3.49,6.37c-.32,.43-.12,1.05,.38,1.24,1.3,.48,2.81,.05,2.81,.05l.3-7.66Z" style="fill:#a24e3f;"></path></g><path d="M329.91,144.03l-2.41-.57s1.32,1.8,2.41,.57Z" style="fill:#263238;"></path><path d="M319.43,144.04l-2.41-.57s1.32,1.8,2.41,.57Z" style="fill:#263238;"></path><path d="M347.43,151.1c-1.24,2.15-3.25,3.5-5.1,3.97-2.78,.7-4.21-3.77-3.26-6.55,.85-2.5,3.58-4.16,6.28-3.62,2.66,.54,3.49,3.74,2.08,6.2Z" style="fill:#b97964;"></path></g><path d="M341.57,150.79h-.02c-.14,0-.24-.13-.23-.27,.07-1.06,.57-2.08,1.37-2.78,.8-.7,1.88-1.06,2.94-1,.14,0,.24,.13,.23,.27,0,.14-.12,.25-.26,.23-.94-.07-1.87,.26-2.58,.88-.7,.62-1.14,1.51-1.2,2.44,0,.13-.12,.23-.25,.23Z" style="opacity:.2;"></path><path d="M326.19,156.5c-.29,0-.61-.03-.95-.1-.13-.03-.22-.16-.19-.29s.15-.22,.3-.19c2.85,.59,3.8-1.86,3.84-1.97,.05-.13,.19-.19,.32-.15,.13,.05,.2,.19,.15,.32,0,.03-.91,2.38-3.46,2.38Z" style="fill:#263238;"></path></g><path d="M322.97,168.35c14.85,3.97,29.75,1.9,29.75,1.9,0,0,5.8-43.8-18.85-44.9-26.01-1.17-19.04,20.64-19.04,20.64,0,0-.94-11.11,9.54-13.35s16.58,12.74,16.58,12.74c-1.08,22.29-17.81,22.45-17.98,22.97Z" style="fill:#407BFF;"></path><g style="opacity:.3;"><path d="M334.41,198.78c-7.47,1.33-16.19-1.64-22.54-8.53,2.87,5.17,7.73,8.84,13.41,10.5,4.23,1.24,7.62,1.84,11.6-.08,7.32-3.53,14.63-15.22,16.43-23.12-3.84,6.55-11.43,19.89-18.9,21.22Z"></path></g><g style="opacity:.3;"><path d="M309.03,175.44c7.72-.51,16.98-5.3,22.81-10.38-9.94,5.19-15.6,8.39-22.81,10.38Z"></path></g><path d="M353.31,166.97c-.26-.17-23.15,19.15-45.93,11.18,0,0,11.56,9.06,31.4,1.4,11.38-4.4,14.53-12.58,14.53-12.58Z" style="opacity:.3;"></path></g></g></g><g id="freepik--Character_1--inject-36"><g><g><g><g><g><path d="M147.83,156.12s.94-6.77-3.02-18.51c0-.01,.61-.32,.61-.33-.55-1.64-1.12-3.16-1.65-4.47-.01-.04-.01-.05-.01-.05l16.7,9.34c-.22,3.82,1.47,11.1,2.42,14.17,0,0,1.22,4.78-6.24,5.35-5.45,.42-8.8-5.5-8.8-5.5Z" style="fill:#895555;"></path><path d="M160.96,147.43l-9.45-1.7c.98,2.87,3.7,6.21,10.23,6.21,0,0-.79-3.23-.78-4.51Z" style="opacity:.2;"></path></g><g><path d="M143.28,124.87c1.55,10.26,2.21,16.08,7.89,20.87,8.55,7.2,20.6,1.49,22.16-9.06,1.4-9.49-1.36-24.68-11.84-27.79-10.32-3.07-19.76,5.72-18.22,15.98Z" style="fill:#895555;"></path><path d="M140.88,112.58c.91-5.81,15.16-7.13,19.39-4.58,.63,.38,6.61,4.1,7.11,3.87l-17.54,2.57c-.62-.08-2.11,1.17-2.57,3.12,0,0,1.85,15.78-2.23,20.75-3.76-1.44-4.52-7.69-5.99-11.32-2.18-5.41-2.45-13.23,1.83-14.41Z" style="fill:#263238;"></path><path d="M139.97,133.83c1.06,2.58,3.22,4.42,5.35,5.26,3.21,1.26,4.06-2.21,3.49-5.43-.52-2.9-1.69-6.39-5.07-6.27-3.33,.12-4.98,3.49-3.77,6.44Z" style="fill:#895555;"></path><path d="M156.82,126.81c.09,1.06,.73,1.86,1.42,1.79,.69-.07,1.17-.98,1.08-2.03-.09-1.06-.73-1.86-1.42-1.79-.69,.07-1.17,.98-1.08,2.03Z" style="fill:#263238;"></path><path d="M167.81,126.81c.09,1.06,.73,1.86,1.42,1.79,.69-.07,1.17-.98,1.08-2.03-.09-1.06-.73-1.86-1.42-1.79-.69,.07-1.17,.98-1.08,2.03Z" style="fill:#263238;"></path><path d="M165.27,125.54s3.81,4.95,5.07,6.99c-1.35,1.46-3.94,1.07-3.94,1.07l-1.13-8.06Z" style="fill:#773737;"></path><path d="M155.29,121.79c.17,.05,.35,.01,.49-.11,1.62-1.52,3.41-1.11,3.42-1.11,.27,.06,.54-.1,.6-.36,.07-.27-.1-.53-.36-.6-.09-.02-2.33-.53-4.34,1.35-.2,.19-.21,.5-.03,.7,.06,.06,.13,.11,.21,.13Z" style="fill:#263238;"></path><path d="M162.76,137.67c-1.78,0-3.18-.92-4.32-1.84-.16-.13-.19-.37-.06-.53,.13-.16,.37-.19,.53-.06,1.6,1.29,2.88,1.78,4.28,1.65,.2-.02,.39,.13,.41,.34,.02,.21-.13,.39-.34,.41-.17,.02-.34,.02-.51,.02Z" style="fill:#263238;"></path></g><path d="M147.06,133.69c-.12,0-.22-.08-.24-.2-.17-.84-.56-1.62-1.12-2.26-.37-.42-.96-.94-1.73-1.05-.68-.11-1.38,.2-1.67,.71-.07,.12-.22,.16-.34,.1-.12-.07-.16-.22-.1-.34,.39-.71,1.29-1.11,2.18-.97,.91,.14,1.6,.74,2.02,1.22,.62,.71,1.05,1.57,1.24,2.49,.03,.14-.06,.27-.2,.29-.02,0-.03,0-.05,0Z" style="opacity:.2;"></path></g><path d="M172.86,120.97c.09-.03,.17-.08,.24-.16,.17-.21,.14-.53-.07-.7-2.11-1.74-4.28-1.05-4.39-1.03-.26,.08-.41,.36-.32,.63,.08,.26,.36,.4,.62,.32,.09-.03,1.77-.54,3.46,.86,.13,.11,.31,.14,.46,.09Z" style="fill:#263238;"></path></g><path d="M138.2,124.77s8.81-15.1,24.42-13.53c2.6,.26,4.81,.97,6.3,3.12,.1,.14,.19,.28,.27,.42,0,0-3.77-13.04-17.68-11.98-13.91,1.06-15.57,15.65-13.32,21.97Z" style="fill:#407BFF;"></path><path d="M167.93,111.88s-.02-.04-.04-.06c-1.49-2.15-3.7-2.86-6.3-3.12-13.87-1.4-22.37,10.36-24.09,13,.14,1.14,.37,2.19,.69,3.07,0,0,8.81-15.1,24.42-13.53,2.6,.26,4.81,.97,6.3,3.12,.1,.14,.19,.28,.27,.42,0,0-.36-1.23-1.25-2.91Z" style="opacity:.3;"></path><path d="M163.53,145.51c.66-.18,.66-1.54,.66-1.54,0,0,1.84,4.06-2.33,4.31-4.16,.25-6.23-1.32-6.69-3.03-.47-1.71,2.18-3.59,2.18-3.59,0,0-.73,1.03,.61,2.42,.84,.82,2.09,1.05,3.17,.59,0,0,1.75,1.02,2.41,.84Z" style="fill:#263238;"></path></g><g><path d="M221.12,191.27s-.06-1.89,.04-6.36c.02-.96,.2-2.81,.68-4.59,.48-1.78-.3-3.97,.94-4.21,1.18-.23,2.84,2.14,2.68,4.44-.17,2.3,.31,3.1,.31,3.1,0,0,8.5-6.39,10.32-5.66,1.81,.72,.46,3.27,.46,3.27,0,0,1.61,.1,1.06,2.13,0,0,1.73,.9,.98,2.55,0,0-.65,1.68-2.19,3.44-1.54,1.76-3.38,4.52-5.99,5.61-2.61,1.1-3.88,1.91-3.88,1.91l-5.4-5.63Z" style="fill:#895555;"></path><g><g><path d="M219.01,137.85c-.3,1.9,.67,3.82,2.06,5.15s3.17,2.16,4.92,2.96c1.75,.79,3.54,1.58,4.99,2.84,2,1.74,3.23,4.35,3.29,7,.06,2.65-1.04,5.31-2.96,7.14l-8.4,1.17c-3.99-2.9-7.51-5.73-8.69-10.52-1.18-4.79,1.2-12.36,4.79-15.74Z" style="fill:#407BFF;"></path><g style="opacity:.3;"><path d="M228.37,162.69c.73-1.02,2.57-4.15,2.17-6.8-.25-1.59-.79-3.2-2-4.26-1-.87-2.42-1.51-3.93-2.19l-.15-.07c-1.68-.76-3.98-1.8-5.88-3.58-.83,2.45-1.18,5.1-.73,6.92,.77,3.12,4.5,8.08,7.58,10.4l2.94-.41Z" style="fill:#fff;"></path></g></g><g><rect x="220.07" y="162.92" width="17.17" height="14.39" transform="translate(478.69 306.9) rotate(172.03)" style="fill:#263238;"></rect><rect x="216.52" y="166.64" width="23.53" height="5.96" transform="translate(477.88 305.95) rotate(172.03)" style="fill:#263238;"></rect><polygon points="234.38 174.78 235.85 201.78 230.65 202.5 223.85 176.26 234.38 174.78" style="fill:#263238;"></polygon></g><path d="M239.39,165.12c-7.75,1.42-15.56,2.52-23.4,3.28,7.75-1.43,15.56-2.52,23.4-3.28h0Z" style="fill:#407BFF;"></path><rect x="220.53" y="172.51" width="17.17" height="1.79" transform="translate(-21.82 33.42) rotate(-7.96)" style="opacity:.3;"></rect></g><path d="M235.27,178.04c-1.21,.36-2.62,2.28-3.28,3.45-.22,.4-.43,.82-.47,1.28-.04,.46,.1,.95,.47,1.23,.47,.35,.85,.32,1.32-.04,.47-.36,1.07-.98,1.32-1.51-.9,.92-1.57,2.06-1.95,3.29-.13,.42-.23,.86-.16,1.3,.06,.43,.31,.86,.71,1.04,.41,.18,.9,.08,1.27-.17,.37-.24,.65-.61,.9-.97-.52,.66-1.06,1.34-1.27,2.15-.06,.25-.09,.51-.07,.77,.05,.83,1.09,1.2,1.65,.58,.72-.78,1.7-1.97,2.19-3.11,.84-1.94-.78-3.91-.78-3.91l-1.85-5.39Z" style="fill:#895555;"></path></g><g><polygon points="201.83 418.33 210.27 441.11 217.93 438.64 215.29 414.59 201.83 418.33" style="fill:#895555;"></polygon><g><path d="M222.73,433.64c.13-1.47,.03-2.7-1.55-2.79l-2.24-.13c-.85,0-1.45,.57-2.13,1.04-5.14,3.57-7.24-1.04-9.24-1.04-2.56,0-.91,8.18-1.03,8.61l-2.8,9.5c-.24,.79,.25,2.51,1.1,2.73,.15,.04,.31,.06,.47,.06h29.66c4.72,0,4.77-5.78,2.83-6.19-8.74-1.8-12.18-4.66-15.06-6.75,0,0-.19-2.78,0-5.05Z" style="fill:#407BFF;"></path><path d="M234.96,451.62h-29.66c-.16,0-.31-.02-.47-.06-.58-.15-.98-.99-1.11-1.76v-.72h35.02c-.47,1.34-1.64,2.54-3.79,2.54Z" style="fill:#fff; opacity:.4;"></path><path d="M226.82,441.62c-.76,.7-1.39,1.54-1.85,2.47-.09,.18-.05,.41,.13,.51,.17,.09,.42,.05,.51-.13,.44-.9,1-1.64,1.73-2.32,.14-.13,.15-.4,0-.53-.15-.14-.38-.14-.53,0h0Z" style="fill:#263238;"></path><path d="M224.09,439.96c-.7,.67-1.29,1.44-1.75,2.29-.09,.17-.05,.42,.13,.51s.41,.05,.51-.13c.22-.41,.47-.79,.75-1.16,0-.01,.04-.05,.01-.02l.05-.06s.07-.09,.11-.13c.07-.09,.15-.18,.23-.26,.16-.18,.32-.35,.49-.51,.14-.14,.15-.4,0-.53s-.38-.14-.53,0h0Z" style="fill:#263238;"></path><path d="M222.23,438.46c-.71,.39-1.29,1-1.64,1.73-.08,.18-.05,.41,.13,.51,.17,.09,.42,.05,.51-.13,.08-.17,.17-.33,.27-.48,.02-.03,.05-.07,.07-.1,.02-.02,.04-.08,0,0,0-.02,.03-.03,.04-.05,.06-.07,.12-.14,.18-.21,.12-.13,.26-.24,.4-.36-.03,.03-.05,.04,0,0l.05-.04s.08-.06,.12-.08c.08-.05,.16-.1,.24-.14,.17-.09,.24-.35,.13-.51s-.33-.24-.51-.13h0Z" style="fill:#263238;"></path><path d="M222.42,435.4c-.83,.01-1.65,.17-2.42,.49-.18,.07-.33,.25-.26,.46,.06,.17,.27,.34,.46,.26,.73-.3,1.45-.45,2.22-.46,.2,0,.38-.17,.38-.38s-.16-.38-.38-.38h0Z" style="fill:#263238;"></path></g></g><g><polygon points="146.75 414.27 143.37 439.07 135.29 439.47 132.67 415.57 146.75 414.27" style="fill:#895555;"></polygon><path d="M128.41,450.58h18.07s.39-.76-.06-2.78c-.07-.31-.16-.66-.28-1.04,0-.02-.01-.04-.02-.06-.17-.56-.36-1.25-.57-1.99-.83-3.03-1.39-9.99-1.39-9.99,0,0-3.42-3.43-6.93-1.82-3.09,1.41-2.61,3.2-2.61,3.2,0,0-.05,4.62-2.39,6.71-1.45,1.29-2.89,2.29-3.58,3.9-.13,.3-.23,.62-.3,.97,0,.04-.02,.09-.02,.13-.14,.77-.14,1.68,.07,2.78Z" style="fill:#407BFF;"></path><g style="opacity:.4;"><path d="M146.43,447.8c.45,2.02,.06,2.78,.06,2.78h-18.07c-.21-1.1-.22-2.01-.07-2.78h18.09Z" style="fill:#fff;"></path></g><path d="M135.61,439.36c1.02-.79,2.35-.69,3.26,.2,.25,.24,.62-.14,.38-.38-1.14-1.11-2.77-1.18-4.02-.2-.27,.21,.11,.59,.38,.38h0Z" style="fill:#263238;"></path><path d="M135.1,441.05c1.02-.79,2.35-.69,3.26,.2,.25,.24,.62-.14,.38-.38-1.14-1.11-2.77-1.18-4.02-.2-.27,.21,.11,.59,.38,.38h0Z" style="fill:#263238;"></path><path d="M134.59,442.6c1.02-.79,2.35-.69,3.26,.2,.25,.24,.62-.14,.38-.38-1.14-1.11-2.77-1.18-4.02-.2-.27,.21,.11,.59,.38,.38h0Z" style="fill:#263238;"></path></g><g><path d="M128.07,257.01l39.01,.33,23.75-.72s16.68,71.89,18.1,85.43c1.41,13.54,15.43,91.72,15.43,91.72l-20.63,1.99s-20.68-81.06-22.19-88.38c-1.32-6.38-15.91-47.31-19.63-57.72-.37,2.13-.76,4.27-1.15,6.4-.94,9.6-3.96,40.19-5.28,51.57,0,0-4.46,69.61-7.78,88.49l-15.41-.49c-2.29-26.81-4.13-125.03-4.13-125.03h0c-1.29-20.46-.08-53.59-.08-53.59Z" style="fill:#263238;"></path><g style="opacity:.5;"><path d="M181.09,267.37c2.21,7.25,8.11,13.08,15.38,15.2,.39,.11,.23,.73-.17,.61-7.49-2.18-13.56-8.18-15.83-15.64-.12-.39,.49-.56,.61-.17h0Z"></path><path d="M161.28,267.37c.43,6.35,.85,12.7,1.28,19.05,.02,.41,.65,.41,.63,0-.23-3.25-.44-6.52-.65-9.78,1.57,1.21,3.4-.26,3.91-1.87,.84-2.62,.52-5.73-.13-8.35-.1-.4-.72-.23-.61,.16,.46,1.84,.65,3.73,.52,5.62-.06,.96-.15,2.07-.6,2.95-.5,.98-1.77,1.81-2.78,.92-.11-.09-.24-.1-.34-.05-.19-2.88-.39-5.76-.58-8.64-.02-.41-.65-.41-.63,0Z"></path><path d="M142.62,268.45c.09,8.41-6.39,15.46-14.76,16.12-.4,.03-.4-.59,0-.63,8.03-.63,14.22-7.44,14.13-15.49,0-.4,.62-.4,.63,0h0Z"></path><path d="M138.51,350.51c-2.61,.96-5.41,.98-8.02,.04-.38-.13-.21-.74,.17-.6,2.52,.9,5.18,.88,7.69-.04,.38-.14,.54,.46,.17,.6h0Z"></path></g></g><g><path d="M119.42,263.63l-6.71-1.24c-1.66,5.92-2.56,12.02-2.67,18.16-.04,4,6.05,8.95,6.05,8.95,0,0,1.91,4.88,3.27,3.51,1.36-1.37-1.59-8.12-1.62-9.64-.07-4.72-.18-9.48,.25-10.09,.43-.6,.06,5.9,1.96,7.45,1.9,1.54,.9-6.67,1.8-9.38,.9-2.71-.78-7.31-2.33-7.73Z" style="fill:#895555;"></path><path d="M115.52,288.85c-1.54-2.81-2.27-6-2.12-9.2-.04-.25,.42-.29,.4-.06-.16,3.14,.55,6.26,2.06,9.02,.12,.23-.22,.44-.34,.22v.03Z" style="isolation:isolate; opacity:.2;"></path><path d="M112.45,281.28c-.01,1.62,.35,3.23,1.05,4.69,.12,.23-.27,.36-.38,.12-.72-1.5-1.08-3.13-1.07-4.79-.04-.25,.41-.28,.4-.06v.04Z" style="isolation:isolate; opacity:.2;"></path></g><g><path d="M220.88,189.35l-16.24,13.88s-.73-2.57-1.82-6.32h0c-2.44-8.26-5.02-21.3-10.5-31.39-6.3-12.93-16.86-9.62-16.86-9.62-6.6,4.82-7.48,18.27,12.43,47.05,1.83,7.07,3.81,14.33,4.71,16.34,1.89,4.25,10.69,5.21,16.42,.85,6.4-4.86,18.71-23.91,18.71-23.91l-6.84-6.87Z" style="fill:#407BFF;"></path><path d="M220.88,189.35l-16.24,13.88s-.73-2.57-1.82-6.32h0c-2.44-8.26-5.02-21.3-10.5-31.39-6.3-12.93-16.86-9.62-16.86-9.62-6.6,4.82-7.48,18.27,12.43,47.05,1.83,7.07,3.81,14.33,4.71,16.34,1.89,4.25,10.69,5.21,16.42,.85,6.4-4.86,18.71-23.91,18.71-23.91l-6.84-6.87Z" style="opacity:.3;"></path><path d="M177.45,155.36c-5.45-.13-26.47-1.71-47.68,2l.5,73.99c-7.67,36.8-9.92,107.96-10.69,130.08,4.71,.64,9.55,1.05,16.02,1.32l7.01-31.62,8.77,31.95c24.94-.17,51.76-1.92,61.82-5.78-.15,.36-19.52-106.5-20.93-119.79-2.49-23.42-6.25-58.95-10.12-80.02-.42-.46-3.19-2.13-4.72-2.13Z" style="fill:#407BFF;"></path><g style="opacity:.3;"><path d="M177.45,155.36c-5.45-.13-26.47-1.71-47.68,2l.5,73.99c-7.67,36.8-9.92,107.96-10.69,130.08,4.71,.64,9.55,1.05,16.02,1.32l7.01-31.62,8.77,31.95c24.94-.17,51.76-1.92,61.82-5.78-.15,.36-19.52-106.5-20.93-119.79-2.49-23.42-6.25-58.95-10.12-80.02-.42-.46-3.19-2.13-4.72-2.13Z"></path></g><polygon points="144.1 155.51 147.67 149.95 156.58 155.73 161.74 150.58 165.27 154.92 158.4 167.56 144.1 155.51" style="fill:#407BFF;"></polygon><path d="M189.5,211.31l-4.88-38.57s5.14,13.19,5.77,22.03c.62,8.84-.89,16.55-.89,16.55Z" style="isolation:isolate; opacity:.2;"></path><path d="M204.64,203.22s-.93,3.39-.44,6.46l3.1-8.73-2.66,2.27Z" style="isolation:isolate; opacity:.2;"></path><path d="M118.69,168.57c-3.97,11.45-3.02,39.78-4.63,47.77-2.32,11.49-3.07,48.49-3.07,48.49l11.17,1.02,5.69-42.5,5.05-30.72,.12-35.84s-10.36,.32-14.33,11.77Z" style="fill:#407BFF;"></path><path d="M118.69,168.57c-3.97,11.45-3.02,39.78-4.63,47.77-2.32,11.49-3.07,48.49-3.07,48.49l11.17,1.02,5.69-42.5,5.05-30.72,.12-35.84s-10.36,.32-14.33,11.77Z" style="opacity:.3;"></path><path d="M129.83,211.31c.15-.88,1.42-26.91,1.42-26.91,0,0,4.14,20.34,3.15,26.91-1.38,9.14-4.13,18.82-4.13,18.82l-.43-18.82Z" style="isolation:isolate; opacity:.2;"></path><path d="M213.21,357.3c-.02,.05-.5-2.44-1.3-6.74-8.14,3.02-56.01,5.48-56.01,5.48l-9.54-32.77h-6.65l-9.44,32.77s-8.97-.61-10.47-.82c-.08,2.35-.15,4.44-.21,6.21,4.71,.64,9.55,1.05,16.02,1.32l7.01-31.62,8.77,31.95c24.94-.17,51.76-1.92,61.82-5.78Z" style="fill:#407BFF;"></path><polygon points="111.12 259.64 122.79 261.18 123.03 259.35 111.18 257.89 111.12 259.64" style="fill:#407BFF;"></polygon><polygon points="217.75 192.02 225.1 200.16 226.05 198.76 218.74 191.18 217.75 192.02" style="fill:#407BFF;"></polygon><g style="isolation:isolate; opacity:.2;"><path d="M161.31,312.33c4.15-14.55,9.31-28.81,15.42-42.64,.33,15.94-5.35,31.92-15.68,44.07"></path></g></g></g></g></svg>
