<svg xmlns="http://www.w3.org/2000/svg" viewBox="0 0 500 500"><g id="freepik--background-complete--inject-82"><rect x="402.07" y="365.04" width="35.16" height="11.19" transform="translate(839.3 741.28) rotate(180)" style="fill:#ebebeb"></rect><rect x="119.11" y="237.55" width="35.16" height="11.19" transform="translate(273.39 486.29) rotate(180)" style="fill:#ebebeb"></rect><path d="M421.68,390.34c5.84-.09,20.81-.34,26.45-.41l8.71,0-.46.45,0-11.19.5.5c-5.84,0-20.73-.07-26.37-.15l-8.79-.11.24-.24-.24,11.19Zm0,0-.23-11.19v-.23h.24c4.39-.06,13.2-.16,17.58-.2l17.58-.07h.5v.5l0,11.19v.46h-.45l-8.87,0c-5.6-.06-20.5-.32-26.29-.42Z" style="fill:#ebebeb"></path><path d="M336.2,157.72c5.84-.1,20.81-.35,26.45-.41l8.71,0-.46.45,0-11.19.5.5c-5.84,0-20.73-.07-26.37-.15l-8.79-.11.24-.24-.24,11.19Zm0,0L336,146.53v-.23h.24c4.39-.06,13.2-.16,17.58-.2l17.58-.07h.5v.5l-.05,11.19v.46h-.45l-8.87,0c-5.6-.07-20.5-.32-26.29-.42Z" style="fill:#ebebeb"></path><path d="M355.81,171.83c5.84-.1,20.81-.35,26.45-.41l8.71,0-.46.45,0-11.19.5.5c-5.84,0-20.73-.07-26.37-.15l-8.79-.11.24-.24-.24,11.19Zm0,0-.23-11.19v-.23h.24c4.39-.06,13.2-.16,17.58-.2l17.58-.07h.5v.5l0,11.19v.46H391l-8.87,0c-5.6-.07-20.5-.32-26.29-.42Z" style="fill:#ebebeb"></path><rect x="375.35" y="146.53" width="35.16" height="11.19" transform="translate(785.85 304.26) rotate(180)" style="fill:#ebebeb"></rect><rect x="43.16" y="379.15" width="35.16" height="11.19" transform="translate(121.48 769.5) rotate(180)" style="fill:#ebebeb"></rect><rect x="62.77" y="44.93" width="35.16" height="11.19" transform="translate(160.7 101.06) rotate(180)" style="fill:#ebebeb"></rect><path d="M43.16,70.23c5.84-.1,20.81-.35,26.45-.41l8.71,0-.46.45,0-11.19.5.5c-5.84,0-20.73-.07-26.37-.15l-8.79-.11L43.4,59l-.24,11.19Zm0,0L42.92,59v-.23h.24c4.39-.06,13.19-.16,17.58-.2l17.58-.07h.5V59l0,11.19v.46h-.45l-8.87,0c-5.6-.07-20.51-.32-26.29-.42Z" style="fill:#ebebeb"></path><path d="M402.07,56.12c5.84-.1,20.81-.34,26.45-.41l8.71,0-.46.45,0-11.19.5.5-17.58-.07c-4.38,0-13.2-.13-17.58-.19l.24-.24-.24,11.19Zm0,0-.24-11.19V44.7h.24c4.39-.06,13.2-.16,17.58-.2l17.58-.07h.5v.5l-.05,11.19v.46h-.45l-8.87,0c-5.6-.07-20.5-.32-26.29-.42Z" style="fill:#ebebeb"></path><rect x="40.29" y="288.36" width="146.12" height="8.92" style="fill:#ebebeb"></rect><rect x="53.32" y="297.28" width="120.06" height="24.61" style="fill:#ebebeb"></rect><polygon points="173.38 302.14 53.32 304.53 53.32 297.28 173.38 297.28 173.38 302.14" style="fill:#c7c7c7"></polygon><path d="M155.29,317.24H71.41v-15.3h83.88Zm-82.88-1h81.88v-13.3H72.41Z" style="fill:#dbdbdb"></path><rect x="99.69" y="307.53" width="27.33" height="4.13" style="fill:#dbdbdb"></rect><polygon points="52.35 463.45 48.37 463.45 59.94 321.9 70.08 321.9 52.35 463.45" style="fill:#ebebeb"></polygon><polygon points="70.08 321.9 68.89 331.37 59.17 331.37 59.94 321.9 70.08 321.9" style="fill:#c7c7c7"></polygon><polygon points="174.35 463.45 178.33 463.45 166.76 321.9 156.62 321.9 174.35 463.45" style="fill:#ebebeb"></polygon><polygon points="156.62 321.9 157.81 331.37 167.53 331.37 166.76 321.9 156.62 321.9" style="fill:#c7c7c7"></polygon><path d="M68.31,167.55l-.13-4a2.25,2.25,0,0,0-1.31-1.95c-.27-.12-.53-.25-.79-.39s-.51-.29-.76-.44a2.25,2.25,0,0,0-2.36,0l-3.43,2.13-6.61-10.66,3.42-2.13a2.21,2.21,0,0,0,1-2.11,15.06,15.06,0,0,1-.05-1.78,2.24,2.24,0,0,0-1.17-2l-3.56-1.9,5.93-11.06,3.56,1.91a2.25,2.25,0,0,0,2.34-.16c.49-.34,1-.65,1.52-.94a2.21,2.21,0,0,0,1.18-2l-.12-4,12.53-.39.13,4A2.23,2.23,0,0,0,81,131.51l.78.4.76.43a2.22,2.22,0,0,0,2.34,0l3.46-2.13,6.61,10.66L91.5,143a2.22,2.22,0,0,0-1,2.11,15,15,0,0,1,0,1.77,2.24,2.24,0,0,0,1.17,2l3.56,1.91-5.93,11.06L85.76,160a2.22,2.22,0,0,0-2.34.15,14.56,14.56,0,0,1-1.51.93,2.27,2.27,0,0,0-1.19,2l.13,4Zm-4.21-8.16a3.32,3.32,0,0,1,1.73.49l.72.4c.25.14.49.26.74.38a3.21,3.21,0,0,1,1.89,2.82l.1,3,10.54-.33-.1-3a3.22,3.22,0,0,1,1.71-2.94,14.65,14.65,0,0,0,1.42-.88,3.2,3.2,0,0,1,3.38-.21l2.68,1.43,5-9.29-2.67-1.44a3.25,3.25,0,0,1-1.7-2.94,13.15,13.15,0,0,0,0-1.66,3.23,3.23,0,0,1,1.5-3.05l2.59-1.61-5.56-9-2.6,1.61a3.23,3.23,0,0,1-3.39,0c-.23-.15-.47-.28-.71-.41s-.49-.26-.74-.37a3.24,3.24,0,0,1-1.89-2.83l-.1-3L68,126.87l.09,3a3.23,3.23,0,0,1-1.7,2.94,16.13,16.13,0,0,0-1.43.88,3.23,3.23,0,0,1-3.38.22l-2.68-1.44-5,9.3,2.67,1.43a3.26,3.26,0,0,1,1.7,2.94,13.47,13.47,0,0,0,.05,1.68,3.24,3.24,0,0,1-1.51,3l-2.58,1.59,5.56,9,2.58-1.6A3.13,3.13,0,0,1,64.1,159.39Zm9.81-2.9a10,10,0,1,1,8.78-5.25A9.89,9.89,0,0,1,73.91,156.49Zm0-18.91a8.95,8.95,0,1,0,4.22,1.06A9,9,0,0,0,73.94,137.58Z" style="fill:#ebebeb"></path><path d="M414.84,198.77a2.74,2.74,0,0,1,2.88,0c.25.15.49.29.74.42l.77.39a2.74,2.74,0,0,1,1.6,2.38l.11,3.54,11.54-.36-.11-3.54a2.76,2.76,0,0,1,1.45-2.49,16.83,16.83,0,0,0,1.46-.9,2.75,2.75,0,0,1,2.87-.19l3.11,1.67,5.46-10.17-3.12-1.67a2.76,2.76,0,0,1-1.43-2.49c0-.58,0-1.15-.05-1.72a2.71,2.71,0,0,1,1.27-2.58l3-1.87-6.09-9.81-3,1.87a2.72,2.72,0,0,1-2.87,0l-.74-.42-.76-.38a2.74,2.74,0,0,1-1.61-2.39l-.1-3.54-11.54.36.11,3.53a2.75,2.75,0,0,1-1.44,2.49,13.84,13.84,0,0,0-1.47.91A2.75,2.75,0,0,1,414,172l-3.11-1.67-5.46,10.18,3.11,1.67a2.74,2.74,0,0,1,1.44,2.49,14.12,14.12,0,0,0,0,1.72,2.73,2.73,0,0,1-1.27,2.58l-3,1.87,6.09,9.8Zm2.9-18.22a9.45,9.45,0,1,1,3.87,12.8A9.46,9.46,0,0,1,417.74,180.55Z" style="fill:#ebebeb"></path><path d="M79.74,89a31.49,31.49,0,1,0,31.49-31.49A31.49,31.49,0,0,0,79.74,89Zm16.78,0a14.71,14.71,0,1,1,14.71,14.7A14.71,14.71,0,0,1,96.52,89Z" style="fill:#ebebeb"></path><polygon points="105.17 58.79 117.28 58.79 116.62 50.22 105.84 50.22 105.17 58.79" style="fill:#ebebeb"></polygon><polygon points="128.23 62.87 136.79 71.44 142.38 64.9 134.76 57.28 128.23 62.87" style="fill:#ebebeb"></polygon><polygon points="141.64 82.06 141.64 94.17 150.21 93.5 150.21 82.73 141.64 82.06" style="fill:#ebebeb"></polygon><polygon points="137.56 105.11 129 113.67 135.53 119.26 143.15 111.65 137.56 105.11" style="fill:#ebebeb"></polygon><polygon points="118.38 118.53 106.26 118.53 106.93 127.1 117.7 127.1 118.38 118.53" style="fill:#ebebeb"></polygon><polygon points="95.32 114.44 86.76 105.88 81.17 112.42 88.79 120.03 95.32 114.44" style="fill:#ebebeb"></polygon><polygon points="81.91 95.26 81.91 83.15 73.33 83.82 73.33 94.59 81.91 95.26" style="fill:#ebebeb"></polygon><polygon points="85.99 72.21 94.55 63.64 88.02 58.05 80.4 65.67 85.99 72.21" style="fill:#ebebeb"></polygon><polygon points="409.35 273.46 401.35 273.46 401.35 463.45 374.49 463.45 374.49 273.46 366.51 273.46 387.93 249.94 409.35 273.46" style="fill:#ebebeb"></polygon><polygon points="458.55 235.31 450.54 235.31 450.54 463.45 423.69 463.45 423.69 235.31 415.7 235.31 437.13 211.78 458.55 235.31" style="fill:#ebebeb"></polygon><polygon points="363.98 315.42 355.98 315.42 355.98 463.45 329.13 463.45 329.13 315.42 321.14 315.42 342.56 291.89 363.98 315.42" style="fill:#ebebeb"></polygon></g><g id="freepik--Floor--inject-82"><path d="M41.45,463.45c133.61-.61,283.49-.62,417.1,0-133.61.61-283.49.61-417.1,0Z" style="fill:#263238"></path></g><g id="freepik--Device--inject-82"><path d="M334.51,80.6h-169A17.26,17.26,0,0,0,148.36,98V446a17.27,17.27,0,0,0,17.11,17.42h169A17.29,17.29,0,0,0,351.64,446V98A17.28,17.28,0,0,0,334.51,80.6Zm6.43,354.67c0,9.16-6.86,16.57-15.32,16.57H174.39c-8.49,0-15.34-7.41-15.34-16.57V111.21c0-18.66,6.85-19.57,15.34-19.57h30.29c1.76,0,3.2,2,3.2,4.48v1.07c0,5.81,3.18,5.83,7.09,5.83h70c4,0,7.09,0,7.09-5.83V96.12c0-2.48,1.42-4.48,3.22-4.48h30.29c8.46,0,15.32,2.48,15.32,19.57Z" style="fill:#263238"></path><path d="M259.55,95.76H240.44a1.18,1.18,0,0,1-1.18-1.18h0a1.18,1.18,0,0,1,1.18-1.18h19.11a1.18,1.18,0,0,1,1.18,1.18h0A1.18,1.18,0,0,1,259.55,95.76Z" style="fill:#fff"></path><path d="M341,111.21V435.27c0,9.16-6.86,16.57-15.32,16.57H174.39c-8.48,0-15.34-7.41-15.34-16.57V111.21c0-18.66,6.86-19.57,15.34-19.57h30.29c1.76,0,3.2,2,3.2,4.48v1.07c0,5.81,3.18,5.83,7.09,5.83H285c3.94,0,7.09,0,7.09-5.83V96.12c0-2.48,1.42-4.48,3.21-4.48h30.3C334.09,91.64,341,94.12,341,111.21Z" style="fill:#fff"></path><g id="freepik--u5Zjqx--inject-82"><path d="M199.45,98.92l-.29.29-.17.16a4,4,0,0,0-5.64,0l-.16-.17-.29-.29h0l0,0,.37-.33a5.16,5.16,0,0,1,.86-.54,4.14,4.14,0,0,1,1.14-.38c.18,0,.37,0,.56-.08h.5l.39,0a4.77,4.77,0,0,1,1,.25,4.94,4.94,0,0,1,.7.33,4.48,4.48,0,0,1,.67.47l.31.28Z" style="fill:#c7c7c7"></path><path d="M194.28,100.29l-.47-.46a3.35,3.35,0,0,1,4.72,0l-.47.46a2.68,2.68,0,0,0-3.78,0Z" style="fill:#c7c7c7"></path><path d="M197.6,100.76l-.46.46a1.35,1.35,0,0,0-1.94,0c-.15-.16-.31-.31-.46-.46A2,2,0,0,1,197.6,100.76Z" style="fill:#c7c7c7"></path><path d="M196.59,101.63a.42.42,0,0,1-.42.42.41.41,0,0,1-.41-.42.41.41,0,0,1,.41-.41A.41.41,0,0,1,196.59,101.63Z" style="fill:#c7c7c7"></path></g><path d="M170.91,99.8a1.21,1.21,0,1,1,1.2,1.21A1.2,1.2,0,0,1,170.91,99.8Z" style="fill:#c7c7c7"></path><path d="M174.7,99.8a1.21,1.21,0,1,1,1.21,1.21A1.21,1.21,0,0,1,174.7,99.8Z" style="fill:#c7c7c7"></path><path d="M178.5,99.8a1.21,1.21,0,1,1,1.21,1.21A1.21,1.21,0,0,1,178.5,99.8Z" style="fill:#c7c7c7"></path><path d="M182.3,99.8a1.21,1.21,0,1,1,1.2,1.21A1.2,1.2,0,0,1,182.3,99.8Z" style="fill:#c7c7c7"></path><path d="M186.1,99.8a1.21,1.21,0,1,1,1.2,1.21A1.2,1.2,0,0,1,186.1,99.8Z" style="fill:#c7c7c7"></path><path d="M327.31,102.44h-9.83V97.88h9.83Zm-9.32-.51h8.8V98.39H318Z" style="fill:#c7c7c7"></path><rect x="318.3" y="98.66" width="6.33" height="3" style="fill:#c7c7c7"></rect><rect x="327.31" y="98.94" width="0.87" height="2.43" style="fill:#c7c7c7"></rect><polygon points="182.22 434.33 181.33 434.33 181.33 438.41 179.67 438.41 179.67 436.33 176.73 436.33 176.73 438.41 175.06 438.41 175.06 434.33 174.18 434.33 178.2 430.18 182.22 434.33" style="fill:#ebebeb"></polygon><rect x="316.51" y="430.18" width="9.69" height="1.38" style="fill:#ebebeb"></rect><rect x="316.51" y="433.6" width="9.69" height="1.39" style="fill:#ebebeb"></rect><rect x="316.51" y="437.03" width="9.69" height="1.39" style="fill:#ebebeb"></rect><polygon points="253.04 434.44 250.28 437.38 247.53 434.44 248.01 433.98 250.28 436.4 252.55 433.98 253.04 434.44" style="fill:#ebebeb"></polygon><path d="M250.28,440.42a5,5,0,1,1,5-5A5,5,0,0,1,250.28,440.42Zm0-9.35a4.35,4.35,0,1,0,4.34,4.34A4.34,4.34,0,0,0,250.28,431.07Z" style="fill:#ebebeb"></path><path d="M262.5,244.64a12.22,12.22,0,1,0-12.28-12.15A12.23,12.23,0,0,0,262.5,244.64Zm-10.79-12.15a10.73,10.73,0,1,1,10.78,10.66A10.73,10.73,0,0,1,251.71,232.49Zm10.79,12.15a12.22,12.22,0,1,0-12.28-12.15A12.23,12.23,0,0,0,262.5,244.64Zm-10.79-12.15a10.73,10.73,0,1,1,10.78,10.66A10.73,10.73,0,0,1,251.71,232.49Zm10.79,12.15a12.22,12.22,0,1,0-12.28-12.15A12.23,12.23,0,0,0,262.5,244.64Zm-10.79-12.15a10.73,10.73,0,1,1,10.78,10.66A10.73,10.73,0,0,1,251.71,232.49Zm10.87,25.68a25.75,25.75,0,1,0-25.89-25.6A25.76,25.76,0,0,0,262.58,258.17Zm-14.26-25.66a14.11,14.11,0,1,1,14.19,14A14.14,14.14,0,0,1,248.32,232.51Zm1.9,0a12.22,12.22,0,1,0,12.14-12.28A12.22,12.22,0,0,0,250.22,232.49Zm1.49,0a10.73,10.73,0,1,1,10.78,10.66A10.73,10.73,0,0,1,251.71,232.49Zm10.79,12.15a12.22,12.22,0,1,0-12.28-12.15A12.23,12.23,0,0,0,262.5,244.64Zm-10.79-12.15a10.73,10.73,0,1,1,10.78,10.66A10.73,10.73,0,0,1,251.71,232.49Zm10.79,12.15a12.22,12.22,0,1,0-12.28-12.15A12.23,12.23,0,0,0,262.5,244.64Zm-10.79-12.15a10.73,10.73,0,1,1,10.78,10.66A10.73,10.73,0,0,1,251.71,232.49Z" style="fill:#407BFF"></path><polygon points="257.34 207.77 267.24 207.71 266.65 200.71 257.84 200.76 257.34 207.77" style="fill:#407BFF"></polygon><polygon points="276.2 211 283.24 217.95 287.78 212.58 281.52 206.4 276.2 211" style="fill:#407BFF"></polygon><polygon points="287.26 226.61 287.32 236.51 294.32 235.93 294.27 227.12 287.26 226.61" style="fill:#407BFF"></polygon><polygon points="284.04 245.48 277.08 252.52 282.45 257.06 288.64 250.79 284.04 245.48" style="fill:#407BFF"></polygon><polygon points="268.42 256.54 258.52 256.59 259.11 263.6 267.91 263.55 268.42 256.54" style="fill:#407BFF"></polygon><polygon points="249.55 253.31 242.51 246.35 237.98 251.72 244.24 257.91 249.55 253.31" style="fill:#407BFF"></polygon><polygon points="238.5 237.69 238.44 227.79 231.43 228.38 231.48 237.19 238.5 237.69" style="fill:#407BFF"></polygon><polygon points="241.72 218.83 248.68 211.79 243.31 207.25 237.12 213.51 241.72 218.83" style="fill:#407BFF"></polygon><g style="opacity:0.5"><path d="M231.45,205.1a15.63,15.63,0,1,0-11.74,18.74A15.63,15.63,0,0,0,231.45,205.1ZM218.13,217a8.57,8.57,0,1,1,6.43-10.27A8.58,8.58,0,0,1,218.13,217Z" style="fill:#407BFF"></path><polygon points="209.93 194.66 215.79 193.32 214.52 189.24 209.31 190.44 209.93 194.66" style="fill:#407BFF"></polygon><polygon points="221.54 194.07 226.63 197.27 228.61 193.48 224.08 190.65 221.54 194.07" style="fill:#407BFF"></polygon><polygon points="230.16 201.87 231.51 207.72 235.58 206.45 234.38 201.24 230.16 201.87" style="fill:#407BFF"></polygon><polygon points="230.75 213.47 227.56 218.57 231.34 220.54 234.18 216.01 230.75 213.47" style="fill:#407BFF"></polygon><polygon points="222.96 222.09 217.1 223.44 218.37 227.51 223.59 226.31 222.96 222.09" style="fill:#407BFF"></polygon><polygon points="211.35 222.68 206.26 219.49 204.28 223.27 208.81 226.11 211.35 222.68" style="fill:#407BFF"></polygon><polygon points="202.73 214.89 201.38 209.03 197.31 210.31 198.51 215.52 202.73 214.89" style="fill:#407BFF"></polygon><polygon points="202.14 203.28 205.33 198.19 201.55 196.21 198.71 200.74 202.14 203.28" style="fill:#407BFF"></polygon></g><g style="opacity:0.5"><path d="M299.34,190a13.42,13.42,0,1,0-12.19,14.55A13.41,13.41,0,0,0,299.34,190Zm-12.72,8.51a7.36,7.36,0,1,1,6.68-8A7.37,7.37,0,0,1,286.62,198.52Z" style="fill:#407BFF"></path><polygon points="282.27 178.6 287.41 178.15 286.81 174.54 282.23 174.94 282.27 178.6" style="fill:#407BFF"></polygon><polygon points="292.21 179.47 296.16 182.78 298.29 179.8 294.77 176.85 292.21 179.47" style="fill:#407BFF"></polygon><polygon points="298.62 187.11 299.08 192.25 302.69 191.65 302.29 187.07 298.62 187.11" style="fill:#407BFF"></polygon><polygon points="297.75 197.05 294.44 201 297.42 203.13 300.37 199.61 297.75 197.05" style="fill:#407BFF"></polygon><polygon points="290.11 203.46 284.97 203.92 285.58 207.53 290.15 207.13 290.11 203.46" style="fill:#407BFF"></polygon><polygon points="280.18 202.59 276.22 199.28 274.09 202.26 277.61 205.21 280.18 202.59" style="fill:#407BFF"></polygon><polygon points="273.76 194.95 273.31 189.81 269.7 190.42 270.1 194.99 273.76 194.95" style="fill:#407BFF"></polygon><polygon points="274.63 185.02 277.94 181.06 274.96 178.93 272.01 182.45 274.63 185.02" style="fill:#407BFF"></polygon></g><path d="M302.26,306.68H197.74v-9.39H302.26Zm-104-.5H301.76v-8.39H198.24Z" style="fill:#407BFF"></path><rect x="199.67" y="299.23" width="3.29" height="5.51" style="fill:#407BFF"></rect><rect x="204.22" y="299.23" width="3.29" height="5.51" style="fill:#407BFF"></rect><rect x="208.77" y="299.23" width="3.29" height="5.51" style="fill:#407BFF"></rect><rect x="213.31" y="299.23" width="3.29" height="5.51" style="fill:#407BFF"></rect><rect x="217.86" y="299.23" width="3.29" height="5.51" style="fill:#407BFF"></rect><rect x="222.41" y="299.23" width="3.29" height="5.51" style="fill:#407BFF"></rect><rect x="226.95" y="299.23" width="3.29" height="5.51" style="fill:#407BFF"></rect><rect x="231.5" y="299.23" width="3.29" height="5.51" style="fill:#407BFF"></rect><rect x="236.05" y="299.23" width="3.29" height="5.51" style="fill:#407BFF"></rect><rect x="240.6" y="299.23" width="3.29" height="5.51" style="fill:#407BFF"></rect><rect x="245.14" y="299.23" width="3.29" height="5.51" style="fill:#407BFF"></rect><rect x="249.69" y="299.23" width="3.29" height="5.51" style="fill:#407BFF"></rect><path d="M231.29,287.88A2.89,2.89,0,0,1,228.4,285v-3.56a.54.54,0,0,1,.55-.55.56.56,0,0,1,.56.55V285a1.78,1.78,0,1,0,3.56,0v-3.56a.55.55,0,0,1,.56-.55.54.54,0,0,1,.55.55V285A2.89,2.89,0,0,1,231.29,287.88Z" style="fill:#263238"></path><path d="M238.87,285.16h-1.23v2.17a.56.56,0,0,1-1.11,0v-5.9a.55.55,0,0,1,.55-.55h1.79a2.14,2.14,0,1,1,0,4.28Zm-1.23-1.11h1.23a1,1,0,1,0,0-2.06h-1.23Z" style="fill:#263238"></path><path d="M242.36,287.33v-5.9a.54.54,0,0,1,.55-.55h1.18a3.5,3.5,0,0,1,0,7h-1.18A.55.55,0,0,1,242.36,287.33Zm1.11-.56h.62a2.39,2.39,0,0,0,0-4.78h-.62Z" style="fill:#263238"></path><path d="M252.47,286.23H250l-.49,1.3a.56.56,0,0,1-.52.35.41.41,0,0,1-.19,0,.56.56,0,0,1-.33-.72l2.21-5.88a.56.56,0,0,1,.53-.35.55.55,0,0,1,.53.35l2.21,5.88a.56.56,0,0,1-.33.72.38.38,0,0,1-.19,0,.54.54,0,0,1-.51-.35Zm-.41-1.1-.81-2.15-.81,2.15Z" style="fill:#263238"></path><path d="M258.64,282h-1.59v5.34a.55.55,0,0,1-.55.55.55.55,0,0,1-.55-.55V282h-1.58a.56.56,0,0,1-.55-.56.54.54,0,0,1,.55-.55h4.27a.55.55,0,0,1,.55.55A.56.56,0,0,1,258.64,282Z" style="fill:#263238"></path><path d="M260.84,287.33v-5.9a.54.54,0,0,1,.55-.55h3.27a.55.55,0,0,1,.55.55.56.56,0,0,1-.55.56H262v1.83h2.33a.56.56,0,0,1,0,1.11H262v1.84h2.71a.56.56,0,0,1,0,1.11h-3.27A.55.55,0,0,1,260.84,287.33Z" style="fill:#263238"></path><path d="M267.29,286.46a.76.76,0,0,1,.75.75.75.75,0,0,1-.75.74.74.74,0,0,1-.74-.74A.75.75,0,0,1,267.29,286.46Z" style="fill:#263238"></path><path d="M269.59,286.46a.76.76,0,0,1,.75.75.75.75,0,0,1-.75.74.74.74,0,0,1-.74-.74A.75.75,0,0,1,269.59,286.46Z" style="fill:#263238"></path><path d="M271.89,286.46a.76.76,0,0,1,.75.75.75.75,0,0,1-.75.74.74.74,0,0,1-.74-.74A.75.75,0,0,1,271.89,286.46Z" style="fill:#263238"></path></g><g id="freepik--Character--inject-82"><path d="M394.1,328.08c-15.42,26.29-39.63,49.78-46.05,52.17-7,2.6-33.05-5.38-46-10.05-4.24-1.53,4.43-31.4,9-32.94s24.76,10.72,29.62,9.53c1.53-.37,28.43-16.06,43.2-25.94C397.63,311.64,398.78,320.1,394.1,328.08Z" style="fill:#ad6359"></path><path d="M303.94,375.72l11.69-39.36s20.33,9.61,23.7,8.85,34.56-19.94,45.92-26.26,19.95-2.3,5.52,17.49c-15.57,21.36-33.61,41.75-40.67,44.64C340.8,384.87,303.94,375.72,303.94,375.72Z" style="fill:#407BFF"></path><path d="M348.05,361.91a14.46,14.46,0,0,0-1,4,14.47,14.47,0,0,0,2-3.66,14.3,14.3,0,0,0,1-4A15.22,15.22,0,0,0,348.05,361.91Zm-1.17-20.55-1.09.61a13.34,13.34,0,0,0,3.1.64A12.17,12.17,0,0,0,346.88,341.36ZM329.94,374a14.24,14.24,0,0,0-4-1,15.9,15.9,0,0,0,7.7,3A14.76,14.76,0,0,0,329.94,374ZM325,351a15.11,15.11,0,0,0-2.17-3.54A15.91,15.91,0,0,0,326.2,355,14.78,14.78,0,0,0,325,351Zm41.88-8.76a14.68,14.68,0,0,0-3.55,2.16,14.75,14.75,0,0,0,4-1.19,14.37,14.37,0,0,0,3.55-2.16A14.86,14.86,0,0,0,366.9,342.22Zm-59.06,20.36-.37,1.25a13.12,13.12,0,0,0,3-1.92A12.52,12.52,0,0,0,307.84,362.58Z" style="fill:#fff"></path><path d="M313.48,374.91a37.18,37.18,0,0,0,1.38-4.18c.4-1.24.82-2.48,1.21-3.74.85-2.73,1.71-5.46,2.54-8.19s1.68-5.46,2.48-8.19,1.7-5.43,2.35-8.2a.09.09,0,0,0-.18-.05c-1.18,2.58-2.09,5.3-3,8s-1.78,5.32-2.61,8-1.6,5.48-2.33,8.23c-.36,1.33-.66,2.67-1,4a33.85,33.85,0,0,0-.95,4.31A.07.07,0,0,0,313.48,374.91Z" style="fill:#263238"></path><path d="M322.25,379.59c10.69,1.92,23,3.46,27.84,1.48,7.07-2.88,25.11-23.26,40.69-44.63,9.16-12.58,9-18.78,4.8-20Z" style="opacity:0.1"></path><path d="M329.08,273.6a24.74,24.74,0,0,0-18.48-18.39l4.68,19.72-9.83,6.35L293.82,280l-4.68-19.73a24.76,24.76,0,1,0,39.94,13.31Z" style="fill:#dbdbdb"></path><path d="M313.74,423.49a24.74,24.74,0,0,0,18.48,18.39l-4.68-19.72,9.82-6.35L349,417.07l4.68,19.73a24.76,24.76,0,1,0-39.94-13.31Z" style="fill:#dbdbdb"></path><rect x="309.73" y="285.58" width="22.06" height="120.42" transform="translate(-71.16 83.38) rotate(-13.35)" style="fill:#dbdbdb"></rect><rect x="316.21" y="321" width="9.08" height="49.59" transform="translate(-71.16 83.38) rotate(-13.35)" style="fill:#c7c7c7"></rect><path d="M323.35,368.65c2-3.81-3.62-4-3.62-4s8.24-1.63,8.83-6.38c.56-4.57-6.29-4.61-6.78-4.62.43-.09,8-1.79,8.07-6.62.1-5-6.79-3.88-7.23-3.81.38-.21,5.41-3.13,4.66-6.82-1.3-6.33-16.38.78-21.33-.92l-3.11-9.25a13,13,0,0,1-3.1,6.7c-2.3,2.79-3.86,4.64-4.35,6.85a4.74,4.74,0,0,0,2.13,5.25s-4.28,1.64-4.48,5.45c-.1,1.95,2.93,3.84,2.93,3.84s-3.37,1.46-3.34,4.86c0,2.71,3.05,4.19,3.05,4.19s-2.59,2.9-1.67,5.66C295.84,374.56,319,376.81,323.35,368.65Z" style="fill:#ad6359"></path><path d="M304.91,333.42l-2-7.05c-.13-.24-.27-.49-.41-.71-4.91-8-16.82-9.5-15.1-3,1.3,4.95,9.57,7.62,10.17,12.88h0Z" style="fill:#ad6359"></path><path d="M296.13,363.62a.06.06,0,0,0,0,.12c7.42,2.59,16.37,3.17,24,.91.25-.08.23-.51-.06-.48A82.19,82.19,0,0,1,296.13,363.62Z" style="fill:#263238"></path><path d="M295.85,354.31c-.09,0-.12.13,0,.16,7.66,2.63,17.75,3,26.18-.63.29-.13.42-.53.08-.41C316.3,355.42,303.23,355.67,295.85,354.31Z" style="fill:#263238"></path><path d="M323.12,342.72c-8.21,3.17-16.62,3.4-25.29,2.39-.11,0-.12.14,0,.18,4.1,1.65,9.69,1.72,14.05,1.4A23.18,23.18,0,0,0,323.23,343C323.37,342.92,323.3,342.65,323.12,342.72Z" style="fill:#263238"></path><path d="M120.28,460.79c2.9,1.11,87.06,2.64,90.36.76.36-.21.26-3.92,1.5-13.53.06-.46,2-2.24,5-4.76,11.26-9.43,37.71-29.32,37.71-29.32l-42-36.49-40.7,40-10.59,10.4s-34.39,18.57-37.79,21S117.39,459.68,120.28,460.79Z" style="fill:#ad6359"></path><path d="M120.29,460.79c2.9,1.12,87.06,2.64,90.35.76.35-.21.25-3.92,1.5-13.53.05-.46,2-2.24,5-4.76,3.91-3.28,5.77-4.78,11.59-9.31l-53.4-19.63-3.2,3.14-10.58,10.4s-34.39,18.57-37.79,21S117.38,459.68,120.29,460.79Z" style="fill:#ebebeb"></path><path d="M114.49,462c2.92,1,92.59,2,95.82,0,.76-.47,1.45-5.67,2-12.81.07-.89,9.15-8.15,10.39-9.5l-54.94-18.5-6.94,6.52s-40.44,18.82-43.75,21.38S111.56,460.93,114.49,462Z" style="fill:#407BFF"></path><path d="M115.73,458.6c14.09-.18,76.58.42,90.52,1.31.11,0,.11.09,0,.09-14,.49-76.45-.57-90.52-1.17C115.43,458.82,115.43,458.61,115.73,458.6Z" style="fill:#263238"></path><path d="M156.34,428.27c5.56-1,12.33,0,16.52,4,.16.15-.06.38-.24.32A77.81,77.81,0,0,0,156.36,429,.36.36,0,0,1,156.34,428.27Z" style="fill:#263238"></path><path d="M152.32,430.63c5.55-1,12.32,0,16.51,4,.16.16-.06.38-.24.32a78.45,78.45,0,0,0-16.26-3.58A.35.35,0,0,1,152.32,430.63Z" style="fill:#263238"></path><path d="M148.29,433c5.55-1,12.32,0,16.51,3.95.16.16-.06.39-.24.33a77.81,77.81,0,0,0-16.26-3.58A.35.35,0,0,1,148.29,433Z" style="fill:#263238"></path><path d="M144.26,435.36c5.55-1,12.32,0,16.51,4,.16.15-.06.38-.24.32a78.45,78.45,0,0,0-16.26-3.58A.35.35,0,0,1,144.26,435.36Z" style="fill:#263238"></path><path d="M148.65,423.25c3.88,3.1,9,4.4,13.53,6.15.47.18.85-.26.88-.68a.15.15,0,0,0,.13-.2,29.67,29.67,0,0,0-8.39-12.8c-2.29-2-6.33-3.36-8.54-.39C144.17,418.14,146.38,421.45,148.65,423.25Zm-1.36-4.47c-.9-6.09,5.59-2.83,7.22-1.31a32.69,32.69,0,0,1,2.9,3.21c1.89,2.33,3.42,4.88,5.06,7.37-2.19-1-4.44-1.8-6.66-2.71C153.17,424.25,147.79,422.14,147.29,418.78Z" style="fill:#263238"></path><path d="M181.79,420.29c-1.3-3.47-5.57-3.25-8.32-2a29.53,29.53,0,0,0-11.61,10,.15.15,0,0,0,.08.23.68.68,0,0,0,.65.9c4.86-.42,10.11-.26,14.7-2.15C180,426.13,183,423.57,181.79,420.29Zm-12,7c-2.38.26-4.77.4-7.15.75,2.27-1.93,4.45-4,6.91-5.67a33.06,33.06,0,0,1,3.68-2.27c2-1,9.13-2.35,6.57,3.26C178.43,426.4,172.68,426.94,169.83,427.25Z" style="fill:#263238"></path><path d="M171.54,415.23l51.91,26.9s54.09-49,59-49.32,77.72,49,114.35,49.16c37.94.16,39.86-39.59,39.86-39.59l-55.34-12.71c-39.9-19.66-81.46-55-108.64-51.69C243.21,341.56,171.54,415.23,171.54,415.23Z" style="fill:#37474f"></path><path d="M171.54,415.23l51.91,26.9s54.09-49,59-49.32,77.72,49,114.35,49.16c37.94.16,39.86-39.59,39.86-39.59l-55.34-12.71c-39.9-19.66-81.46-55-108.64-51.69C243.21,341.56,171.54,415.23,171.54,415.23Z" style="fill:#37474f"></path><path d="M184.22,408.38c8.76,4.33,6.3,3,15,7.39,4.27,2.17,25.74,13,29.38,15.68a.1.1,0,0,1-.09.17c-4.29-1.44-25.52-12.73-29.74-15-8.64-4.59-6.11-3.36-14.7-8A.13.13,0,1,1,184.22,408.38Z" style="fill:#263238"></path><path d="M232.65,429.73c10.15-9,43.4-38.09,44.75-39.17a18.6,18.6,0,0,1,3.47-2.6,3.65,3.65,0,0,1,3.2.26c1.54.72,3,1.5,4.57,2.25l9,4.39c11.64,5.68,23.2,11.5,34.92,17,11.27,5.28,19.32,10.25,31.09,14.31a176.65,176.65,0,0,0,36.11,8.61c1.52.19,3,.35,4.56.49.11,0,.11.18,0,.17a144.87,144.87,0,0,1-35.54-6.61c-11.67-3.58-19.58-8.24-30.65-13.33-11.48-5.29-22.8-10.94-34.11-16.56-6-3-11.94-6-17.93-8.9-1.36-.67-3.29-2.11-4.84-1.4a8.9,8.9,0,0,0-1.79,1.32l-2,1.66c-2.56,2.14-43.33,37.25-44.66,38.26C232.69,430,232.55,429.81,232.65,429.73Z" style="fill:#263238"></path><path d="M200.19,430.08l68.73-27.57c-17.56,14.36-45.47,39.62-45.47,39.62Z" style="fill:#263238"></path><path d="M436.7,402.38s-1.92,39.75-39.86,39.59c-31.84-.13-91.11-37.45-109.21-47L348,370.78c11,6.73,22.26,13.41,33.37,18.89Z" style="fill:#263238"></path><path d="M436.7,402.38s5.54,40.46-13,53.75-149.84,5.8-169.48-1.52-18.85-39.52,3.27-46c21-6.17,109.35-5.72,111.57-6.49.55-.2-7.59-5.58-7.54-5.88l17.75-10.11Z" style="fill:#37474f"></path><path d="M410.44,404.6c0-.15.27-.09.26,0a17.83,17.83,0,0,0,3.64,11.58c2.9,3.65,7.31,5.83,11.3,8.07.38.21.06.82-.34.68a35.7,35.7,0,0,1-7.06-3.43,17.28,17.28,0,0,1-5.22-4.74A15.52,15.52,0,0,1,410.44,404.6Z" style="fill:#263238"></path><path d="M370.65,398.39c1-1.12,2-2.19,3-3.27,2.36-2.58,4.74-5.16,7.2-7.63.24-.24.66.13.44.38-1.68,2-3.44,3.94-5.18,5.89l-2.69,3a19.28,19.28,0,0,0-2.51,2.91c-.67,1.13.1,2.14,1.28,2.32a4.17,4.17,0,0,0,2.92-.93,38,38,0,0,0,5.09-5q1.49-1.53,3-3.05c1.07-1.07,2.21-2.09,3.27-3.16.07-.07.2,0,.13.12-.94,1.18-1.82,2.42-2.76,3.6s-1.91,2.35-2.88,3.51-1.87,2.17-2.84,3.22a11.2,11.2,0,0,1-2.85,2.33c-1.75.93-4.72,1-5.53-1.23A3.1,3.1,0,0,1,370.65,398.39Z" style="fill:#263238"></path><path d="M256.92,454.85c6.86.43,13.7,1.13,20.55,1.58s13.61.78,20.42,1q20.52.72,41.06.22c13.83-.35,28.76-1.06,42.54-2.36,6.59-.61,13.27-1.08,19.8-2.18a31.15,31.15,0,0,0,15.87-7.24c9.25-8.21,13.26-20.71,15.21-32.73.26-1.61.49-3.23.69-4.85a.09.09,0,0,1,.17,0c-1.35,12.35-3.85,25.19-12.08,34.8a31,31,0,0,1-13.13,9.3c-6.24,2.19-13.08,2.46-19.59,3.05-13.83,1.26-28.82,2-42.7,2.5s-27.94.53-41.91.11-27.92-1.22-41.83-2.52c-1.7-.16-3.39-.33-5.08-.56A.08.08,0,1,1,256.92,454.85Z" style="fill:#263238"></path><path d="M302.51,404.05c4.35-.45,8.69-.88,13.05-1.14s8.82-.46,13.23-.64c8.72-.35,17.47-.63,26.2-.65,5,0,9.91.18,14.86.46.16,0,.13.24,0,.25-8.75.4-17.49.56-26.24.76s-17.46.57-26.19,1c-4.95.25-9.89.39-14.84.58C302.19,404.7,302.15,404.08,302.51,404.05Z" style="fill:#263238"></path><path d="M360.49,395.74a66.85,66.85,0,0,1,9.77,5.8,80.78,80.78,0,0,1,9,6.88c.08.08,0,.17-.12.13-3.32-1.72-6.5-3.83-9.65-5.85a93.62,93.62,0,0,1-9.2-6.5C360.06,396,360.21,395.61,360.49,395.74Z" style="fill:#263238"></path><path d="M362.06,398.66l77.22,8.91c0-1.58-15.36-79.28-35.3-91.34-3.83-2.32-10.7-2.18-16.83,3.42C376,329.82,361.06,397.61,362.06,398.66Z" style="fill:#407BFF"></path><path d="M411.09,323.37a14.44,14.44,0,0,0-3.42,2.1,14.78,14.78,0,0,0,4-1.18l.06,0C411.5,324,411.3,323.66,411.09,323.37Zm-13.74,53.36a14.59,14.59,0,0,0-3.54,2.17,14.43,14.43,0,0,0,4-1.18,15,15,0,0,0,3.55-2.17A14.49,14.49,0,0,0,397.35,376.73Zm34.23-2.26a10.11,10.11,0,0,0-.84.66c.33,0,.65-.1,1-.17C431.67,374.8,431.63,374.63,431.58,374.47Zm-65.94,5.58s0,0,0,0c-.13.57-.26,1.12-.39,1.67a12.42,12.42,0,0,0,1.58,2.33A14.43,14.43,0,0,0,365.64,380.05Zm46.74-23.95a15.13,15.13,0,0,0-2.16-3.55,14.49,14.49,0,0,0,1.18,4,14.75,14.75,0,0,0,2.16,3.54A14.43,14.43,0,0,0,412.38,356.1Zm-18.73-40.43-.19.07.25.3A2.38,2.38,0,0,0,393.65,315.67Zm-12.11,45.95a14.24,14.24,0,0,0-4-1,15.9,15.9,0,0,0,7.7,3A14.76,14.76,0,0,0,381.54,361.62Zm56.23,38.16-.9-.38a14.68,14.68,0,0,0-4-1,14.08,14.08,0,0,0,3.65,2c.5.19,1,.36,1.52.51C437.94,400.55,437.86,400.17,437.77,399.78Zm-23.13-10.52a14.39,14.39,0,0,0-1,4,16.08,16.08,0,0,0,3-7.69A14.59,14.59,0,0,0,414.64,389.26ZM383.15,395a14.31,14.31,0,0,0-1,4,16,16,0,0,0,2.95-7.7A14.73,14.73,0,0,0,383.15,395Zm8.39-55.55a14,14,0,0,0-1,4.05,15.68,15.68,0,0,0,2-3.66,14.73,14.73,0,0,0,1-4A14.91,14.91,0,0,0,391.54,339.46Z" style="fill:#fff"></path><path d="M412.44,321.81c14.35,11,52.16,55.65,44.25,66.24s-62.07,7.06-77.88,2.5c-4.7-1.35,7.37-31.27,12.38-32.75,4.18-1.23,27.63,5.13,28.06,3.77.48-1.53-4.72-11.42-13.1-29.5C396.49,311.23,406.1,316.93,412.44,321.81Z" style="fill:#ad6359"></path><path d="M368.09,352.61c-10.84.28-13.58,2-22.85-2.61-6.08-3-10.63-.45-6.5,5.29,6.77,9.38,20.82,12,25.95,11.45Z" style="fill:#ad6359"></path><path d="M397.91,358.16s-13-4.64-24.57-5.49c-8-.59-25.57.08-39.22,19.77-3.23,4.68-4.53,13.63,3.52,7.92,5.73-4.06,8.13-8.36,11.89-10.11,0,0-.3,11.58,4.51,14.64A103.46,103.46,0,0,0,367.17,392a21.21,21.21,0,0,0,1.54-2.34s4.76,2.43,12.62.35Z" style="fill:#ad6359"></path><path d="M365.61,353.33c-3.36,2.53-10.4,8-14.6,14.49-4.67,7.2-11.71,22.33-6.36,25.72,3.93,2.48,7.12-3.06,7.12-3.06s-1.59,6.87,2.45,8.34c3.68,1.34,5.89-3.1,5.89-3.1s-.25,4.34,3.54,4.94c4.56.73,4.34-8.47,9.59-11.72C374.42,388.21,365.61,353.33,365.61,353.33Z" style="fill:#ad6359"></path><path d="M359.44,371.48c-2.77,2.89-7.38,11.09-7.75,18.85,0,.17.12.27.16.11a84.67,84.67,0,0,1,7.66-18.92S359.47,371.45,359.44,371.48Z" style="fill:#263238"></path><path d="M366.57,376.4c-2.13,2.74-6.51,11.4-6.61,19.27,0,.18.13.27.17.11a90.46,90.46,0,0,1,6.51-19.34A0,0,0,0,0,366.57,376.4Z" style="fill:#263238"></path><path d="M349.52,370.18c-3.29,1.59-5.25,3.65-7.83,6.16a46.26,46.26,0,0,1-4,3.55c-1.28,1-3.16,2.49-4.86,1.54a2.86,2.86,0,0,1-1.1-2.71,13.88,13.88,0,0,1,1.25-4.24c0-.05-.07-.1-.09-.05a20,20,0,0,0-1.5,3.84,4.61,4.61,0,0,0,.14,2.75c.82,1.82,3.1,1.7,4.61.91a15.44,15.44,0,0,0,2.5-1.76c.75-.62,1.48-1.28,2.19-1.95,1.46-1.38,2.84-2.84,4.28-4.24a46.45,46.45,0,0,1,4.46-3.69A.07.07,0,0,0,349.52,370.18Z" style="fill:#263238"></path><path d="M344.3,383.52a111.13,111.13,0,0,1,5.3-13.27,0,0,0,1,0-.08-.05c-2.27,3-5.47,10.48-6.12,12.82s-1.33,5.24-.94,7.63c.6,3.61,3.1,3.89,4,3.92a4.67,4.67,0,0,0,3-1,9.43,9.43,0,0,0,2.35-3.07c0-.06-.05-.11-.08-.06-1,1.63-2.86,3.38-4.86,3.44a3.3,3.3,0,0,1-2.43-.83,4.3,4.3,0,0,1-1.06-2.81A20.13,20.13,0,0,1,344.3,383.52Z" style="fill:#263238"></path><path d="M397.91,358.16,387,396s67.73,3.86,71.48-8.44S429.54,335,416,323.94c-15.73-12.82-16.57-7.44-11.45,5.39,5.36,13.43,14.59,32.6,14.59,32.6Z" style="fill:#407BFF"></path><path d="M414.64,389.26a14.39,14.39,0,0,0-1,4,16.08,16.08,0,0,0,3-7.69A14.59,14.59,0,0,0,414.64,389.26Zm16.23-41.89a14.82,14.82,0,0,0-4-1,14.25,14.25,0,0,0,3.65,2,14.66,14.66,0,0,0,4,1A14.77,14.77,0,0,0,430.87,347.37Zm25.57,37.69a13.82,13.82,0,0,0-2.17-3.54,15.19,15.19,0,0,0,1.18,4,14.65,14.65,0,0,0,2.17,3.55A14.43,14.43,0,0,0,456.44,385.06ZM434.28,373a17.45,17.45,0,0,0-2.7,1.5,10.11,10.11,0,0,0-.84.66c.33,0,.65-.1,1-.17a16.38,16.38,0,0,0,3-1,14.8,14.8,0,0,0,3.55-2.16A14.16,14.16,0,0,0,434.28,373Zm-36.93,3.76a14.59,14.59,0,0,0-3.54,2.17,14.43,14.43,0,0,0,4-1.18,15,15,0,0,0,3.55-2.17A14.49,14.49,0,0,0,397.35,376.73ZM414,322.35a17.78,17.78,0,0,0-2.77,1l-.12.06a14.44,14.44,0,0,0-3.42,2.1,14.78,14.78,0,0,0,4-1.18l.06,0a16.83,16.83,0,0,0,2.74-1.54Z" style="fill:#fff"></path><path d="M440.51,368a78.23,78.23,0,0,0-10.45-4,76.84,76.84,0,0,0-10.8-2.39c-2.08-.32-4.18-.55-6.27-.78-.06,0-.07.09,0,.1a96.15,96.15,0,0,1,10.89,2.28q5.36,1.4,10.64,3c2,.6,4,1.29,5.95,2C440.55,368.17,440.59,368,440.51,368Z" style="fill:#263238"></path><path d="M398.07,358c.34,0,19.18,3,19.81,3.15-.12-.25-4.89-9.22-5.6-10.53-.08-.13-.14-.26-.21-.4-.43-.56-.86-1.13-1.26-1.71l-1.55-2.25a0,0,0,1,1,0,0c.55.73,1.1,1.45,1.64,2.18.25.34.49.68.73,1-.47-.93-.94-1.87-1.4-2.81-.75-1.49-1.44-3-2.13-4.53,0-.05.06-.08.08,0,1.41,2.62,2.89,5.18,4.31,7.79s6.77,12.2,6.74,12.19-20.82-3.68-21.22-3.78A.13.13,0,0,1,398.07,358Z" style="fill:#263238"></path><path d="M400.66,381.13c1.19-4.22,2.34-8.46,3.69-12.64.76-2.37,1.52-4.75,2.3-7.12,0-.09.19-.05.17,0-1,4.29-2.07,8.59-3.29,12.83s-2.39,8.44-3.67,12.65c-.72,2.39-1.51,4.74-2.38,7.09,0,0-.09,0-.08,0C398.28,389.63,399.46,385.39,400.66,381.13Z" style="fill:#263238"></path><path d="M386.28,396.73c.47-1.19,1-2.89,1.57-4.05.13-.31.36-.29.26,0-.34,1.06-.57,2.23-.89,3.32.94,0,1.89,0,2.84.08l3.29.14c2.14.09,4.29.15,6.43.19q6.53.12,13.05,0a252.58,252.58,0,0,0,26.08-1.84c2.42-.31,4.84-.67,7.24-1.1a71.49,71.49,0,0,0,7-1.52.06.06,0,0,1,0,.12,41.16,41.16,0,0,1-6,1.82c-2.16.47-4.33.88-6.52,1.21-4.35.67-8.73,1.11-13.12,1.43q-13.05.95-26.15.79c-2.45,0-4.89-.08-7.34-.17-1.23,0-2.46-.08-3.69-.15S386.2,396.93,386.28,396.73Z" style="fill:#263238"></path><path d="M390.74,331.64c4.42,1,12-5.75,15-11.23.2-.38-.38-4.33-.87-9.17-.29-2.93-.54-6.21-.55-9.22,0-.61-18.84,4.65-18.84,4.65a48,48,0,0,1,1.87,11.54,6.82,6.82,0,0,1-.13,1.23l0,.21C386.78,322,386.47,330.65,390.74,331.64Z" style="fill:#ad6359"></path><path d="M403.12,302.11c-.85,5.08-4,17.37-14,17.64a13,13,0,0,1-1.93-.1.65.65,0,0,1,0-.21,6.82,6.82,0,0,0,.13-1.23,47.89,47.89,0,0,0-1.87-11.54S399,302.87,403.12,302.11Z" style="fill:#263238"></path><path d="M410.18,282.39c.93,6.89-5.64,25.27-11,28.73-7.78,5-19,3.78-22.84-5.21-3.76-8.71,5.23-32.52,11.08-35.5C396,266,408.81,272.21,410.18,282.39Z" style="fill:#ad6359"></path><path d="M389.82,290.44s.08.1.06.15c-.52,1.21-.9,2.69.06,3.52,0,0,0,.09,0,.07C388.62,293.47,389.14,291.51,389.82,290.44Z" style="fill:#263238"></path><path d="M391.41,289.58c2,.61.67,4.64-1.22,4.07S389.71,289.07,391.41,289.58Z" style="fill:#263238"></path><path d="M382.54,288.19c0-.05-.12,0-.13.08-.39,1.26-1,2.64-2.31,2.67a0,0,0,0,0,0,.07C381.53,291.28,382.38,289.45,382.54,288.19Z" style="fill:#263238"></path><path d="M381.87,286.51c-1.95-.83-3.47,3.13-1.67,3.91S383.51,287.21,381.87,286.51Z" style="fill:#263238"></path><path d="M393.5,288.21a17.37,17.37,0,0,1-1.48-.92c-.56-.36-1-.59-1.33-1.23a.9.9,0,0,1,.38-1,2.25,2.25,0,0,1,2.24.26,3.32,3.32,0,0,1,1.53,1.79A1,1,0,0,1,393.5,288.21Z" style="fill:#263238"></path><path d="M381,283.78a17,17,0,0,0,1.74.13,2.84,2.84,0,0,0,1.8-.21.89.89,0,0,0,.31-1.05,2.22,2.22,0,0,0-2-1.11,3.2,3.2,0,0,0-2.29.54A1,1,0,0,0,381,283.78Z" style="fill:#263238"></path><path d="M387,302.4a2,2,0,0,1-1.3.37,3.37,3.37,0,0,1-1.23-.77s-.09,0-.08.05a1.75,1.75,0,0,0,1.35,1.21,1.39,1.39,0,0,0,1.36-.76C387.18,302.43,387.09,302.37,387,302.4Z" style="fill:#263238"></path><path d="M387,298.22a4.48,4.48,0,0,1-3.48.93,5.73,5.73,0,0,1-1.55-.45,1.47,1.47,0,0,1-.28-.14l-.25-.13a.33.33,0,0,1-.16-.36h0a.52.52,0,0,1,.06-.13h0l0-.1c.3-1,.89-2.4.89-2.4-.41.06-2.47.25-2.27-.24a67.82,67.82,0,0,1,6-12.28.12.12,0,0,1,.21.11c-1.44,4-3.57,7.66-5.08,11.62a8,8,0,0,1,2.21.08c.12.08-1.19,2.74-1.29,3.18a.18.18,0,0,1,0,.05,6.25,6.25,0,0,0,4.86.13C387,298,387.11,298.15,387,298.22Z" style="fill:#263238"></path><path d="M382.71,298.4a5.33,5.33,0,0,0,1.48,2.25,2.45,2.45,0,0,0,1.34.56c1.09.07,1.42-.83,1.51-1.68a5.66,5.66,0,0,0,0-1.34A6.9,6.9,0,0,1,382.71,298.4Z" style="fill:#263238"></path><path d="M384.19,300.65a2.45,2.45,0,0,0,1.34.56c1.09.07,1.42-.83,1.51-1.68A2.48,2.48,0,0,0,384.19,300.65Z" style="fill:#ff9abb"></path><path d="M405.36,296.2c-3-.55-2.14-7.48-2.14-7.48s-7.86.62-6-9.39c0,0-9.33,1.16-14.17-2.85-4.13-3.42-5-11.79-.7-15.78,2.44-2.26,8.29-3.61,14.81,5.76,0,0,11.89-5.12,13.29,8.27,0,0,5.28,1.73,4.88,7.12C414.7,290.36,408,296.68,405.36,296.2Z" style="fill:#263238"></path><path d="M397.35,278.63a.08.08,0,0,1,.15.07c-.95,2.34-1.95,4.89-.42,7.24a6,6,0,0,0,6.76,2.61c.15-.05.24.19.08.23a6.47,6.47,0,0,1-6.86-2.15C395.08,284.18,395.85,281.1,397.35,278.63Z" style="fill:#263238"></path><path d="M405.44,294.62c4.54-1.3,8.36-4.16,9.67-8.91a9.44,9.44,0,0,0-.39-6.82c-1-1.93-2.82-2.93-4.38-4.3,0,0,0-.11.05-.08,10.37,4.93,5.22,19.13-4.83,20.66A.29.29,0,0,1,405.44,294.62Z" style="fill:#263238"></path><path d="M380.94,260.51c5.85-5.56,14,.6,16.43,6.51,0,0,0,0,0,0-2.36-4.55-8.14-9.72-13.57-7.57-6.56,2.6-6.26,13.61.25,16,.19.07.09.41-.12.35C377.81,274.08,376.6,264.64,380.94,260.51Z" style="fill:#263238"></path><path d="M403.42,297.12s5.4-5.32,7.9-3.28-2.36,10.3-5.84,10.9a3.37,3.37,0,0,1-4.11-2.6Z" style="fill:#ad6359"></path><path d="M409.87,296.17a0,0,0,0,1,0,.09c-2.46.5-4.05,2.4-5.3,4.44a1.87,1.87,0,0,1,2.83,0,.07.07,0,0,1-.08.11,2.09,2.09,0,0,0-2.38.3,10.24,10.24,0,0,0-1.4,1.61c-.15.19-.5,0-.38-.21l0-.05C403.67,299.54,406.69,295.89,409.87,296.17Z" style="fill:#263238"></path><rect x="297.76" y="406.21" width="79.98" height="3.58" style="fill:#c7c7c7"></rect><polygon points="297.76 406.21 297.76 409.79 352.13 409.79 349.39 406.21 297.76 406.21" style="fill:#a6a6a6"></polygon><polygon points="345.94 409.79 267.99 409.79 261.5 356.85 339.45 356.85 345.94 409.79" style="fill:#a6a6a6"></polygon><polygon points="342.35 409.79 264.39 409.79 257.9 356.85 335.86 356.85 342.35 409.79" style="fill:#c7c7c7"></polygon><path d="M304.88,382.77a4.49,4.49,0,0,1-3.67,5.25,4.66,4.66,0,0,1-5-4.15,4.49,4.49,0,0,1,3.66-5.25A4.68,4.68,0,0,1,304.88,382.77Z" style="fill:#fff"></path></g><g id="freepik--Plant--inject-82"><path d="M99.21,400.69s17.1-3.88,26.47-12.51,14.61-24.11,14.61-24.11a147.9,147.9,0,0,0-19.18,5,32.48,32.48,0,0,0-5.8,8.2,39.44,39.44,0,0,1,0-5.86,25.63,25.63,0,0,0-6.09,3.7C101.4,382,99.21,400.69,99.21,400.69Z" style="fill:#407BFF"></path><path d="M129.61,371.59c2.33-1.61,4.7-3.17,7-4.79a.13.13,0,0,0-.14-.23c-4.4,2.63-8.75,5.44-13,8.39-1.47,1-2.9,2.09-4.33,3.18l.3-.5c.51-.86,1.06-1.7,1.6-2.55a35.53,35.53,0,0,1,3.63-4.84c.05-.06,0-.14-.09-.08-1.33,1.53-2.66,3.05-3.87,4.68-.58.78-1.12,1.58-1.63,2.4-.26.42-.52.85-.77,1.29l-.25.44c-2.21,1.74-4.37,3.55-6.42,5.46-1.27,1.18-2.49,2.41-3.67,3.67.66-2.07,1.23-4.16,2-6.2,0-.07-.09-.1-.11,0-.75,2.14-1.56,4.29-2.14,6.48q-2,2.13-3.74,4.41l.06-.28c.2-.8.4-1.61.61-2.41.42-1.54.87-3.08,1.4-4.6a26.69,26.69,0,0,1,4.59-8.67c.05-.06,0-.14-.09-.08a33.29,33.29,0,0,0-6.54,13.67c-.19.73-.36,1.46-.53,2.19-.08.39-.19.79-.25,1.19-.52.69-1,1.4-1.51,2.12a74.1,74.1,0,0,0-7.24,14.19,167.37,167.37,0,0,0-5.48,17.09c0,.11.14.15.18,0,3.34-10,6.76-20.15,12.48-29.1a66,66,0,0,1,3.91-5.46A32.26,32.26,0,0,0,114,391a36.86,36.86,0,0,0,8.34-4,53.13,53.13,0,0,0,4.27-3.23.06.06,0,1,0-.08-.09,33.8,33.8,0,0,1-7.83,4.74,43,43,0,0,1-8.63,2.9c-1.26.27-2.54.48-3.82.65a72,72,0,0,1,5-5.59c.58-.57,1.17-1.12,1.77-1.68a39.57,39.57,0,0,1,6.32-3.62c2.8-1.36,5.56-2.79,8.33-4.2,1.57-.8,3.12-1.61,4.7-2.38.06,0,0-.13-.06-.1-2.81,1.36-5.67,2.62-8.51,3.92-2.67,1.23-5.37,2.46-7.93,3.89l-.32.2c2.31-2,4.71-3.94,7.17-5.79Q126.1,374,129.61,371.59Z" style="fill:#263238"></path><path d="M128.64,380.41c-1.39.61-2.81,1.15-4.19,1.79s-2.75,1.44-4.1,2.23c-.06,0,0,.12.06.09,1.36-.65,2.74-1.26,4.09-1.94s2.75-1.44,4.17-2.06C128.74,380.49,128.71,380.38,128.64,380.41Z" style="fill:#263238"></path><path d="M43.66,314.52a24.44,24.44,0,0,1,5.11,14.2c0,1.53-.19,3.67-.37,6.18a40.6,40.6,0,0,1,11.16,9.54,20.13,20.13,0,0,0-11.27-2.7,33.24,33.24,0,0,0,.65,5.11,19.18,19.18,0,0,1,7.25,1.43,16.31,16.31,0,0,0-6.54,1.3c3.05,9.7,12.11,19.66,37.13,23.89a52.46,52.46,0,0,0-4.43-35.2C74.85,323.52,43.66,314.52,43.66,314.52Z" style="fill:#407BFF"></path><path d="M95.44,415c-.43-4.14-1-8.28-1.62-12.39a245.58,245.58,0,0,0-5-24.49,96.83,96.83,0,0,0-3.61-11.16,16.91,16.91,0,0,0,.1-2c0-.8,0-1.6,0-2.4,0-1.6-.1-3.2-.23-4.8a57.35,57.35,0,0,0-1.54-9.38c-.46-1.78-1-3.54-1.51-5.3a.06.06,0,0,0-.11,0,69.27,69.27,0,0,1,1.84,9.37,89.49,89.49,0,0,1,.85,9.39c0,.86,0,1.72,0,2.58,0,.36,0,.73,0,1.1a80.33,80.33,0,0,0-4.21-8.72A105.91,105.91,0,0,0,71.81,344a5.92,5.92,0,0,0-.21-1.39l-.36-1.68c-.26-1.14-.55-2.28-.86-3.41-.62-2.27-1.44-4.46-2.15-6.7,0-.07-.13,0-.11,0,.66,2.21,1.1,4.51,1.61,6.77.25,1.11.49,2.23.74,3.35.12.55.24,1.11.35,1.67l0,.13c-1-1.28-2-2.54-3.1-3.78-4.78-5.6-10-10.77-15.29-15.9-.65-.63-1.31-1.24-2-1.87-.05-.05-.13,0-.08.09,5,5.26,10,10.57,14.7,16.14,1.12,1.32,2.21,2.66,3.29,4l-1.7-1.13c-1.46-.95-2.93-1.88-4.45-2.73s-3-1.68-4.61-2.45-3.32-1.44-4.87-2.35c-.06,0-.12.08-.05.11a35.67,35.67,0,0,1,4.56,2.53c1.53.9,3,1.81,4.54,2.76s2.95,1.85,4.41,2.8c1.22.79,2.42,1.65,3.68,2.38a117.56,117.56,0,0,1,8,11.67,86.79,86.79,0,0,1,4.15,7.86l-.9-.39-2.29-1-4.43-1.93c-2.8-1.22-5.65-2.34-8.41-3.68a37.19,37.19,0,0,1-4.49-2.5c-.06,0-.11.06,0,.11,5.13,3.53,10.88,6,16.56,8.54l2.46,1.08c.67.3,1.35.64,2,.9a88.61,88.61,0,0,1,4.23,11.59,235.81,235.81,0,0,1,5.44,24.21c1.44,8.17,2.41,16.4,3.16,24.66.09,1,.18,2.06.3,3.09a.33.33,0,0,0,.65,0C96.31,423.34,95.88,419.14,95.44,415Z" style="fill:#263238"></path><path d="M80.22,345.88c-.46-2.55-1.14-5-1.82-7.53,0-.07-.13,0-.11,0,.63,2.44,1.08,4.93,1.54,7.42s.88,5.06,1.24,7.61c0,0,.07,0,.07,0A68.07,68.07,0,0,0,80.22,345.88Z" style="fill:#263238"></path><path d="M69.44,352.77A45.37,45.37,0,0,0,64,349.71c-.92-.47-1.84-.92-2.76-1.37s-2-.84-2.89-1.32a.06.06,0,0,0-.06.11c.92.45,1.79,1,2.69,1.5s1.84,1,2.77,1.52c1.83,1,3.63,2.07,5.55,2.87A.14.14,0,0,0,69.44,352.77Z" style="fill:#263238"></path><path d="M99.52,371.07s15.82-3.78,23.09-14.39c6.93-10.14,9.18-27.42,9.35-28.94-.28,1.39-3.55,16.5-14.32,23.53C109.39,356.66,101.42,361.09,99.52,371.07Z" style="fill:#263238;opacity:0.1"></path><path d="M114.12,343.73a20.25,20.25,0,0,0-5.83,9.61s0,.05,0,0a23.58,23.58,0,0,1,5.86-9.54C114.25,343.77,114.17,343.68,114.12,343.73Z" style="fill:#263238"></path><path d="M99.52,371.07s15.82-3.78,23.09-14.39c6.93-10.14,9.18-27.42,9.35-28.94a.45.45,0,0,0,0-.11s-7.58,10.79-15.56,13.54S97.23,353.44,99.52,371.07Z" style="fill:#407BFF"></path><path d="M129.18,333.58a65.33,65.33,0,0,1-4.89,8.37,33.56,33.56,0,0,1-6.51,6.69c-2.15,1.71-4.42,3.26-6.6,4.93a.56.56,0,0,0,0-.08q.61-.9,1.29-1.77c.91-1.16,1.9-2.25,2.9-3.33,2-2.13,4-4.22,5.73-6.53a23.65,23.65,0,0,0,2.54-4.09c0-.07-.08-.1-.11,0-2.57,5.35-7.69,8.77-11.35,13.29a22.25,22.25,0,0,0-1.46,2,7.69,7.69,0,0,0-.91,1.61,33.15,33.15,0,0,0-5.4,5.45,22.58,22.58,0,0,1,.63-3.07,15.71,15.71,0,0,1,1.68-4c0-.06-.06-.12-.1-.06a18.91,18.91,0,0,0-1.84,4,14.32,14.32,0,0,0-.58,3.42h0a31.19,31.19,0,0,0-2.13,3.32c.06-.34.13-.67.19-1,.32-1.58.67-3.15,1.07-4.71a28.06,28.06,0,0,1,3.81-8.91.06.06,0,1,0-.1-.06,33.46,33.46,0,0,0-4.21,8.72c-.51,1.55-.91,3.13-1.27,4.72-.17.78-.33,1.56-.48,2.35-.07.4-.16.81-.23,1.23a57.77,57.77,0,0,0-3.65,10.73,157.53,157.53,0,0,0-3.37,20A165.76,165.76,0,0,0,92.78,418c0,.89.07,1.78.11,2.66,0,.23.36.27.37,0,.16-3.51.25-7,.46-10.54s.51-7,.88-10.51a188.63,188.63,0,0,1,3.3-20.46c1.28-5.78,2.95-11.6,6.11-16.67a31.21,31.21,0,0,1,5.71-6.79c2.22-2,4.64-3.74,7-5.58a38.54,38.54,0,0,0,6.41-6.16,49.94,49.94,0,0,0,5-8.17c.37-.72.76-1.43,1.14-2.14C129.31,333.58,129.21,333.52,129.18,333.58Z" style="fill:#263238"></path><path d="M126.45,335.9a54.59,54.59,0,0,1-3.53,6.17s0,.09.07.05a43.67,43.67,0,0,0,3.57-6.18C126.59,335.87,126.48,335.84,126.45,335.9Z" style="fill:#263238"></path><path d="M41.45,364.07s-.25,22.49,13.2,29,20.65,1.08,29.79,3.26h0c-.36-.54-6.88-9.91-17.25-12.49C56.51,381.15,44.69,373.44,41.45,364.07Z" style="fill:#407BFF"></path><path d="M41.45,364.07s-.25,22.49,13.2,29,20.65,1.08,29.79,3.26h0a50.76,50.76,0,0,0-15.29-4.51C60.66,390.77,44.46,385.24,41.45,364.07Z" style="opacity:0.1"></path><path d="M85.32,396.71A22.31,22.31,0,0,0,80,393.09c-.29-.14-.58-.25-.88-.38a5.47,5.47,0,0,0-.45-.51c-.4-.42-.82-.83-1.26-1.21A20,20,0,0,0,74.67,389c-2.22-1.31-4.66-2.22-6.94-3.44-.07,0-.13.07-.06.1,1.13.59,2.22,1.23,3.31,1.87s2.16,1.22,3.19,1.89a22.46,22.46,0,0,1,2.66,2c.24.21.47.43.7.66A35.88,35.88,0,0,0,73,390.9c-2.46-.49-5-.85-7.41-1.37a36.67,36.67,0,0,1-3.56-1c-1.12-.9-2.23-1.79-3.29-2.77A26.42,26.42,0,0,1,55.25,382c0-.06-.15,0-.1.06a41.24,41.24,0,0,0,5.51,6.08c-.58-.22-1.15-.45-1.72-.71a27.82,27.82,0,0,1-11.46-9.53c0-.06-.14,0-.1.06a31.71,31.71,0,0,0,9.27,8.9,28.29,28.29,0,0,0,5.86,2.77,54.63,54.63,0,0,0,7.28,1.72A52.28,52.28,0,0,1,76.91,393a21.54,21.54,0,0,1,6,3.15,28,28,0,0,1,8,10,50.1,50.1,0,0,1,4.44,16.44c0,.24.4.24.38,0C95.13,413.11,92.61,403.27,85.32,396.71Z" style="fill:#263238"></path><path d="M69.72,389.38A7.68,7.68,0,0,0,67,386.87a9.92,9.92,0,0,1-3.28-2.72c-.05-.06-.15,0-.1.06a10.9,10.9,0,0,0,2.9,2.6,10.14,10.14,0,0,1,3.16,2.62C69.67,389.48,69.75,389.43,69.72,389.38Z" style="fill:#263238"></path><polygon points="76.85 413.31 77.46 425.67 79.34 463.45 107.54 463.45 109.42 425.67 110.03 413.31 76.85 413.31" style="fill:#455a64"></polygon><polygon points="76.85 413.31 77.46 425.67 109.42 425.67 110.03 413.31 76.85 413.31" style="fill:#263238"></polygon><rect x="74.87" y="408.14" width="37.13" height="11.8" transform="translate(186.88 828.08) rotate(180)" style="fill:#455a64"></rect></g></svg>